<svg id="svg" version="1.1" xmlns="http://www.w3.org/2000/svg" xmlns:xlink="http://www.w3.org/1999/xlink" width="400" height="302.4" viewBox="0, 0, 400,302.4"><g id="svgg"><path id="path0" d="M142.683 0.250 C 142.027 0.442,141.167 0.584,140.350 0.637 C 140.047 0.657,139.800 0.724,139.800 0.786 C 139.800 0.849,139.597 0.915,139.350 0.934 C 138.015 1.034,136.693 1.257,136.643 1.390 C 136.612 1.474,136.364 1.499,136.093 1.448 C 135.822 1.396,135.599 1.431,135.599 1.527 C 135.598 1.622,135.171 1.720,134.651 1.744 C 134.130 1.768,133.677 1.868,133.645 1.965 C 133.613 2.062,133.364 2.099,133.093 2.048 C 132.795 1.991,132.600 2.046,132.600 2.188 C 132.600 2.318,132.512 2.369,132.405 2.303 C 132.297 2.236,131.825 2.288,131.355 2.418 C 130.885 2.548,130.196 2.683,129.825 2.719 C 129.454 2.756,128.824 2.896,128.425 3.032 C 128.026 3.168,127.543 3.256,127.350 3.227 C 127.158 3.198,127.000 3.261,127.000 3.365 C 127.000 3.470,126.888 3.545,126.750 3.533 C 126.275 3.490,124.400 3.838,124.400 3.969 C 124.399 4.041,124.075 4.123,123.678 4.152 C 123.281 4.180,122.858 4.264,122.738 4.338 C 122.618 4.412,122.336 4.487,122.110 4.504 C 121.277 4.568,120.200 4.849,120.200 5.004 C 120.200 5.091,120.020 5.115,119.800 5.058 C 119.580 5.000,119.400 5.045,119.400 5.158 C 119.400 5.270,119.220 5.315,119.000 5.258 C 118.780 5.200,118.600 5.245,118.600 5.358 C 118.600 5.470,118.420 5.515,118.200 5.458 C 117.980 5.400,117.800 5.431,117.799 5.527 C 117.799 5.622,117.506 5.715,117.149 5.734 C 116.792 5.753,116.230 5.880,115.900 6.016 C 115.570 6.153,115.236 6.251,115.157 6.235 C 115.078 6.218,114.763 6.308,114.457 6.434 C 114.151 6.561,113.798 6.648,113.672 6.628 C 113.547 6.609,113.187 6.699,112.872 6.829 C 112.558 6.958,112.042 7.101,111.727 7.146 C 111.412 7.191,110.917 7.326,110.627 7.446 C 110.337 7.566,109.988 7.646,109.850 7.623 C 109.713 7.601,109.600 7.668,109.600 7.773 C 109.600 7.877,109.420 7.915,109.200 7.858 C 108.968 7.797,108.800 7.852,108.800 7.988 C 108.800 8.118,108.716 8.172,108.614 8.109 C 108.511 8.045,108.376 8.076,108.314 8.178 C 108.251 8.279,108.020 8.315,107.800 8.258 C 107.580 8.200,107.400 8.251,107.400 8.370 C 107.400 8.490,107.265 8.536,107.100 8.472 C 106.935 8.409,106.800 8.462,106.800 8.590 C 106.800 8.719,106.710 8.768,106.600 8.700 C 106.490 8.632,106.288 8.647,106.150 8.733 C 106.013 8.819,105.810 8.896,105.700 8.905 C 105.139 8.947,104.000 9.261,104.000 9.372 C 104.000 9.443,103.755 9.514,103.456 9.532 C 103.157 9.549,102.881 9.656,102.843 9.770 C 102.805 9.884,102.654 9.931,102.507 9.875 C 102.361 9.819,102.183 9.865,102.114 9.978 C 102.044 10.090,101.855 10.132,101.694 10.070 C 101.532 10.008,101.400 10.034,101.400 10.129 C 101.400 10.223,101.155 10.314,100.856 10.332 C 100.557 10.349,100.279 10.462,100.239 10.583 C 100.199 10.704,100.091 10.756,100.000 10.700 C 99.908 10.643,99.579 10.702,99.267 10.831 C 98.955 10.959,98.588 11.046,98.450 11.023 C 98.313 11.001,98.200 11.082,98.200 11.203 C 98.200 11.324,98.122 11.375,98.026 11.316 C 97.818 11.188,95.327 11.995,95.237 12.220 C 95.202 12.307,95.045 12.328,94.887 12.267 C 94.729 12.207,94.600 12.254,94.600 12.372 C 94.600 12.491,94.465 12.536,94.300 12.472 C 94.135 12.409,94.000 12.442,94.000 12.545 C 94.000 12.649,93.867 12.733,93.706 12.733 C 93.193 12.733,91.000 13.456,91.000 13.625 C 91.000 13.715,90.865 13.736,90.700 13.672 C 90.535 13.609,90.400 13.657,90.400 13.779 C 90.400 13.900,90.333 13.983,90.250 13.962 C 89.928 13.880,88.800 14.243,88.800 14.428 C 88.800 14.535,88.725 14.577,88.633 14.520 C 88.435 14.398,87.000 14.812,87.000 14.991 C 87.000 15.059,86.799 15.130,86.553 15.149 C 86.307 15.167,86.074 15.277,86.036 15.392 C 85.997 15.508,85.892 15.557,85.802 15.501 C 85.607 15.381,83.355 16.201,83.178 16.457 C 83.110 16.555,82.996 16.620,82.924 16.602 C 82.621 16.527,81.600 16.847,81.600 17.016 C 81.600 17.117,81.533 17.184,81.450 17.165 C 81.142 17.092,79.600 17.623,79.600 17.801 C 79.600 17.904,79.465 17.936,79.300 17.872 C 79.135 17.809,79.000 17.862,79.000 17.990 C 79.000 18.119,78.910 18.168,78.800 18.100 C 78.690 18.032,78.600 18.062,78.600 18.166 C 78.600 18.270,78.488 18.343,78.350 18.328 C 78.027 18.292,73.720 20.027,73.637 20.226 C 73.602 20.310,73.445 20.328,73.287 20.267 C 73.129 20.207,73.000 20.262,73.000 20.390 C 73.000 20.519,72.910 20.568,72.800 20.500 C 72.690 20.432,72.600 20.477,72.600 20.600 C 72.600 20.723,72.516 20.772,72.414 20.708 C 72.215 20.585,70.745 21.198,70.633 21.451 C 70.596 21.534,70.484 21.552,70.383 21.489 C 70.282 21.427,70.200 21.477,70.200 21.600 C 70.200 21.723,70.114 21.770,70.008 21.705 C 69.841 21.602,69.091 21.909,68.800 22.200 C 68.745 22.255,68.610 22.310,68.500 22.322 C 68.018 22.374,67.400 22.662,67.400 22.835 C 67.400 22.939,67.321 22.975,67.224 22.915 C 67.061 22.814,65.826 23.323,65.600 23.584 C 65.545 23.648,65.410 23.710,65.300 23.722 C 64.818 23.774,64.200 24.062,64.200 24.235 C 64.200 24.339,64.110 24.368,64.000 24.300 C 63.890 24.232,63.800 24.262,63.800 24.366 C 63.800 24.470,63.688 24.549,63.550 24.541 C 63.139 24.517,62.000 25.024,62.000 25.231 C 62.000 25.337,61.918 25.373,61.818 25.311 C 61.574 25.160,60.977 25.400,61.100 25.600 C 61.154 25.687,61.058 25.812,60.886 25.878 C 60.715 25.943,60.631 26.088,60.699 26.199 C 60.768 26.309,60.732 26.400,60.619 26.400 C 60.372 26.400,58.733 28.772,58.733 29.130 C 58.733 29.269,58.608 29.431,58.454 29.490 C 58.300 29.549,58.225 29.678,58.286 29.778 C 58.348 29.877,58.258 30.012,58.086 30.078 C 57.915 30.143,57.826 30.280,57.889 30.382 C 57.951 30.483,57.934 30.596,57.851 30.633 C 57.645 30.724,56.552 32.200,56.690 32.200 C 56.750 32.200,56.617 32.383,56.393 32.607 C 56.169 32.831,56.048 33.115,56.124 33.238 C 56.208 33.374,56.171 33.406,56.031 33.319 C 55.825 33.192,55.710 33.431,55.776 33.850 C 55.789 33.932,55.708 34.000,55.596 34.000 C 55.483 34.000,55.282 34.247,55.148 34.550 C 55.014 34.852,54.796 35.190,54.663 35.300 C 54.531 35.410,54.395 35.632,54.361 35.793 C 54.327 35.954,54.102 36.307,53.861 36.579 C 53.619 36.851,53.467 37.146,53.523 37.236 C 53.578 37.326,53.531 37.400,53.417 37.400 C 53.202 37.400,52.551 38.508,52.646 38.712 C 52.676 38.776,52.542 38.916,52.350 39.024 C 52.158 39.132,52.000 39.314,52.000 39.428 C 52.000 39.543,51.821 39.864,51.603 40.142 C 51.384 40.420,51.255 40.726,51.315 40.824 C 51.375 40.921,51.328 41.000,51.212 41.000 C 51.095 41.000,51.000 41.135,51.000 41.300 C 51.000 41.465,50.895 41.600,50.767 41.600 C 50.638 41.600,50.588 41.655,50.655 41.721 C 50.722 41.788,50.557 42.080,50.288 42.369 C 50.020 42.659,49.800 42.960,49.800 43.038 C 49.800 43.116,49.553 43.567,49.250 44.040 C 48.948 44.513,48.587 45.080,48.450 45.300 C 48.186 45.721,47.759 46.662,47.790 46.754 C 47.800 46.784,47.630 47.000,47.411 47.234 C 47.193 47.469,47.061 47.737,47.119 47.830 C 47.176 47.924,47.131 48.000,47.017 48.000 C 46.779 48.000,46.110 49.198,46.345 49.203 C 46.430 49.205,46.406 49.272,46.290 49.353 C 45.918 49.614,45.200 50.752,45.200 51.081 C 45.200 51.256,45.105 51.400,44.988 51.400 C 44.872 51.400,44.832 51.490,44.900 51.600 C 44.968 51.710,44.937 51.800,44.832 51.800 C 44.568 51.800,43.795 53.324,43.964 53.512 C 44.039 53.596,43.998 53.606,43.873 53.535 C 43.657 53.411,43.048 54.521,43.152 54.850 C 43.179 54.932,43.119 55.000,43.020 55.000 C 42.921 55.000,42.653 55.360,42.423 55.800 C 42.194 56.240,42.050 56.600,42.103 56.600 C 42.156 56.600,42.020 56.780,41.800 57.000 C 41.580 57.220,41.400 57.541,41.400 57.714 C 41.400 57.887,41.264 58.164,41.098 58.330 C 40.932 58.496,40.847 58.715,40.910 58.816 C 40.972 58.917,40.931 59.000,40.818 59.000 C 40.604 59.000,39.478 61.186,39.556 61.450 C 39.580 61.533,39.505 61.600,39.388 61.600 C 39.272 61.600,39.226 61.681,39.287 61.779 C 39.348 61.878,39.279 62.004,39.133 62.059 C 38.988 62.115,38.704 62.597,38.503 63.130 C 38.302 63.664,38.073 64.145,37.996 64.200 C 37.731 64.389,37.216 65.549,37.341 65.675 C 37.410 65.744,37.356 65.800,37.222 65.800 C 37.087 65.800,37.032 65.890,37.100 66.000 C 37.168 66.110,37.123 66.200,37.000 66.200 C 36.877 66.200,36.832 66.290,36.900 66.400 C 36.968 66.510,36.923 66.600,36.800 66.600 C 36.677 66.600,36.632 66.690,36.700 66.800 C 36.768 66.910,36.729 67.000,36.613 67.000 C 36.337 67.000,33.753 72.162,33.906 72.409 C 33.971 72.514,33.923 72.600,33.800 72.600 C 33.677 72.600,33.632 72.690,33.700 72.800 C 33.768 72.910,33.723 73.000,33.600 73.000 C 33.477 73.000,33.432 73.090,33.500 73.200 C 33.568 73.310,33.523 73.400,33.400 73.400 C 33.277 73.400,33.232 73.490,33.300 73.600 C 33.368 73.710,33.323 73.800,33.200 73.800 C 33.077 73.800,33.027 73.882,33.089 73.983 C 33.152 74.084,33.125 74.196,33.031 74.233 C 32.768 74.336,31.396 77.231,31.517 77.427 C 31.576 77.522,31.523 77.600,31.400 77.600 C 31.277 77.600,31.227 77.682,31.289 77.783 C 31.352 77.884,31.326 77.996,31.233 78.033 C 30.964 78.139,29.987 80.216,30.111 80.418 C 30.173 80.518,30.123 80.600,30.000 80.600 C 29.877 80.600,29.832 80.690,29.900 80.800 C 29.968 80.910,29.937 81.000,29.831 81.000 C 29.652 81.000,29.148 82.054,29.115 82.500 C 29.107 82.610,29.027 82.754,28.937 82.820 C 28.847 82.886,28.753 83.079,28.728 83.250 C 28.703 83.420,28.569 83.697,28.430 83.864 C 28.291 84.031,28.163 84.355,28.146 84.584 C 28.129 84.813,28.039 85.000,27.946 85.000 C 27.853 85.000,27.826 85.080,27.886 85.177 C 27.946 85.275,27.857 85.469,27.689 85.609 C 27.520 85.749,27.426 85.979,27.480 86.119 C 27.533 86.259,27.500 86.402,27.404 86.437 C 27.151 86.529,25.589 90.220,25.716 90.425 C 25.775 90.521,25.739 90.600,25.635 90.600 C 25.462 90.600,25.174 91.218,25.122 91.700 C 25.110 91.810,24.982 92.024,24.838 92.176 C 24.695 92.327,24.624 92.575,24.682 92.726 C 24.740 92.877,24.720 93.000,24.638 93.000 C 24.555 93.000,24.386 93.248,24.261 93.550 C 22.656 97.451,21.823 99.676,21.914 99.822 C 21.974 99.920,21.937 100.000,21.831 100.000 C 21.602 100.000,20.983 101.716,21.151 101.884 C 21.215 101.948,21.152 102.000,21.012 102.000 C 20.868 102.000,20.807 102.130,20.872 102.300 C 20.936 102.465,20.909 102.600,20.813 102.600 C 20.598 102.600,20.168 103.786,20.304 104.006 C 20.358 104.094,20.320 104.196,20.220 104.233 C 20.119 104.270,20.006 104.480,19.968 104.700 C 19.931 104.920,19.842 105.145,19.771 105.200 C 19.699 105.255,19.609 105.525,19.571 105.800 C 19.532 106.075,19.441 106.345,19.370 106.400 C 19.298 106.455,19.208 106.680,19.170 106.900 C 19.131 107.120,19.024 107.356,18.930 107.424 C 18.837 107.492,18.747 107.784,18.730 108.074 C 18.714 108.363,18.623 108.600,18.529 108.600 C 18.434 108.600,18.409 108.735,18.472 108.900 C 18.536 109.065,18.520 109.200,18.438 109.200 C 18.231 109.200,17.788 110.419,17.918 110.629 C 17.976 110.723,17.919 110.800,17.790 110.800 C 17.662 110.800,17.607 110.929,17.667 111.087 C 17.728 111.245,17.707 111.402,17.620 111.437 C 17.395 111.527,16.588 114.018,16.716 114.226 C 16.775 114.322,16.719 114.400,16.590 114.400 C 16.462 114.400,16.407 114.529,16.467 114.687 C 16.528 114.845,16.507 115.002,16.420 115.037 C 16.195 115.127,15.388 117.618,15.516 117.826 C 15.575 117.922,15.519 118.000,15.390 118.000 C 15.262 118.000,15.209 118.135,15.272 118.300 C 15.336 118.465,15.310 118.600,15.216 118.600 C 15.072 118.600,14.768 119.603,14.701 120.300 C 14.690 120.410,14.569 120.704,14.432 120.954 C 14.294 121.204,14.231 121.489,14.292 121.587 C 14.353 121.685,14.310 121.797,14.197 121.834 C 14.084 121.872,13.971 122.195,13.946 122.551 C 13.921 122.908,13.823 123.199,13.729 123.200 C 13.634 123.200,13.607 123.329,13.667 123.487 C 13.728 123.645,13.691 123.803,13.585 123.838 C 13.478 123.874,13.371 124.195,13.346 124.551 C 13.321 124.908,13.223 125.199,13.129 125.200 C 13.034 125.200,13.009 125.335,13.072 125.500 C 13.136 125.665,13.090 125.800,12.970 125.800 C 12.851 125.800,12.800 125.980,12.858 126.200 C 12.915 126.420,12.887 126.646,12.794 126.703 C 12.558 126.850,11.961 128.976,12.096 129.193 C 12.157 129.292,12.114 129.430,12.000 129.500 C 11.886 129.570,11.845 129.711,11.909 129.814 C 11.972 129.916,11.918 130.000,11.788 130.000 C 11.652 130.000,11.597 130.168,11.658 130.400 C 11.715 130.620,11.700 130.800,11.623 130.800 C 11.435 130.800,10.966 132.584,11.098 132.797 C 11.156 132.890,11.120 132.996,11.020 133.033 C 10.920 133.070,10.810 133.370,10.776 133.700 C 10.743 134.030,10.636 134.409,10.540 134.541 C 10.444 134.674,10.424 134.876,10.495 134.991 C 10.566 135.106,10.544 135.200,10.446 135.200 C 10.229 135.200,9.755 137.165,9.911 137.418 C 9.973 137.518,9.918 137.600,9.788 137.600 C 9.652 137.600,9.597 137.768,9.658 138.000 C 9.715 138.220,9.670 138.400,9.558 138.400 C 9.445 138.400,9.400 138.580,9.458 138.800 C 9.515 139.020,9.491 139.200,9.404 139.200 C 9.255 139.200,8.989 140.190,8.893 141.100 C 8.870 141.320,8.798 141.635,8.733 141.800 C 8.668 141.965,8.588 142.370,8.557 142.700 C 8.526 143.030,8.431 143.351,8.347 143.414 C 8.213 143.513,8.018 144.585,7.940 145.650 C 7.926 145.843,7.845 146.000,7.759 146.000 C 7.674 146.000,7.609 146.203,7.615 146.450 C 7.631 147.089,7.522 147.683,7.369 147.800 C 7.297 147.855,7.192 148.305,7.135 148.800 C 7.079 149.295,6.926 149.994,6.796 150.353 C 6.666 150.711,6.610 151.139,6.673 151.303 C 6.736 151.466,6.690 151.600,6.570 151.600 C 6.447 151.600,6.394 151.815,6.449 152.100 C 6.502 152.375,6.457 152.600,6.349 152.600 C 6.241 152.600,6.196 152.825,6.249 153.100 C 6.302 153.375,6.257 153.600,6.149 153.600 C 6.041 153.600,5.996 153.822,6.048 154.093 C 6.099 154.364,6.074 154.612,5.990 154.643 C 5.907 154.674,5.796 155.163,5.744 155.729 C 5.692 156.295,5.597 156.842,5.534 156.945 C 5.413 157.141,4.967 159.539,4.892 160.400 C 4.868 160.675,4.800 161.035,4.742 161.200 C 4.633 161.507,4.200 164.223,4.088 165.300 C 4.054 165.630,4.009 165.900,3.988 165.900 C 3.967 165.900,3.914 166.215,3.869 166.600 C 3.715 167.914,3.633 168.500,3.601 168.500 C 3.521 168.500,3.173 170.859,3.085 172.000 C 3.055 172.385,3.011 172.700,2.989 172.700 C 2.966 172.700,2.917 173.060,2.880 173.500 C 2.844 173.940,2.677 175.278,2.509 176.473 C 2.342 177.668,2.250 178.719,2.306 178.809 C 2.361 178.899,2.326 179.022,2.228 179.083 C 2.130 179.143,2.046 179.532,2.042 179.947 C 2.039 180.361,2.021 180.745,2.003 180.800 C 1.900 181.109,1.814 181.836,1.697 183.376 C 1.625 184.324,1.522 185.505,1.469 186.000 C 1.416 186.495,1.344 187.305,1.310 187.800 C 1.276 188.295,1.192 189.195,1.124 189.800 C 0.937 191.468,0.827 192.871,0.682 195.400 C 0.610 196.665,0.526 197.970,0.495 198.300 C 0.133 202.168,-0.037 225.543,0.252 231.800 C 0.325 233.395,0.432 235.780,0.488 237.100 C 0.544 238.420,0.636 239.995,0.691 240.600 C 0.746 241.205,0.847 242.645,0.914 243.800 C 0.982 244.955,1.076 246.170,1.123 246.500 C 1.170 246.830,1.245 247.595,1.288 248.200 C 1.332 248.805,1.423 249.840,1.491 250.500 C 1.560 251.160,1.611 251.936,1.606 252.225 C 1.598 252.704,2.542 253.701,3.061 253.763 C 3.149 253.774,3.404 253.989,3.626 254.241 C 3.848 254.494,3.972 254.565,3.900 254.400 C 3.785 254.133,3.800 254.133,4.041 254.400 C 4.591 255.010,5.460 255.690,5.317 255.400 C 5.229 255.220,5.285 255.239,5.457 255.450 C 5.615 255.643,5.810 255.800,5.890 255.800 C 5.970 255.800,6.215 256.002,6.433 256.250 C 6.652 256.498,6.763 256.565,6.681 256.400 C 6.598 256.235,6.793 256.357,7.113 256.670 C 7.938 257.478,8.723 258.010,8.873 257.861 C 8.943 257.791,9.000 257.838,9.000 257.967 C 9.000 258.095,9.135 258.200,9.300 258.200 C 9.465 258.200,9.600 258.284,9.600 258.386 C 9.600 258.489,9.886 258.777,10.236 259.026 C 10.606 259.289,10.808 259.357,10.719 259.189 C 10.634 259.030,10.751 259.125,10.978 259.400 C 11.205 259.675,11.394 259.810,11.399 259.700 C 11.404 259.568,11.456 259.568,11.553 259.701 C 11.810 260.052,13.200 261.027,13.206 260.860 C 13.209 260.772,13.305 260.859,13.418 261.054 C 13.532 261.249,13.700 261.362,13.791 261.305 C 13.883 261.249,14.012 261.342,14.078 261.514 C 14.143 261.685,14.278 261.775,14.378 261.714 C 14.477 261.652,14.612 261.742,14.678 261.914 C 14.743 262.085,14.878 262.175,14.978 262.114 C 15.077 262.052,15.212 262.142,15.278 262.314 C 15.343 262.485,15.478 262.575,15.578 262.514 C 15.677 262.452,15.812 262.542,15.878 262.714 C 15.943 262.885,16.078 262.975,16.178 262.914 C 16.277 262.852,16.412 262.942,16.478 263.114 C 16.543 263.285,16.680 263.374,16.782 263.311 C 16.883 263.249,16.996 263.266,17.033 263.349 C 17.163 263.643,18.552 264.581,18.675 264.458 C 18.744 264.389,18.800 264.428,18.800 264.544 C 18.800 264.770,19.602 265.355,20.036 265.445 C 20.181 265.475,20.345 265.548,20.400 265.607 C 20.829 266.065,21.685 266.571,21.854 266.466 C 21.968 266.396,22.006 266.429,21.937 266.540 C 21.818 266.733,22.738 267.307,23.050 267.235 C 23.133 267.216,23.200 267.284,23.200 267.387 C 23.200 267.565,24.706 268.506,24.973 268.495 C 25.043 268.492,25.297 268.661,25.538 268.870 C 25.779 269.080,26.157 269.352,26.378 269.475 C 26.600 269.599,27.393 270.072,28.141 270.527 C 30.072 271.702,31.000 272.209,31.000 272.089 C 31.000 272.031,31.194 272.165,31.430 272.385 C 31.667 272.606,31.937 272.739,32.030 272.681 C 32.124 272.624,32.200 272.674,32.200 272.793 C 32.200 273.006,33.157 273.495,33.450 273.432 C 33.532 273.415,33.600 273.488,33.600 273.595 C 33.600 273.846,34.710 274.424,34.875 274.259 C 34.944 274.190,35.000 274.241,35.000 274.372 C 35.000 274.601,35.942 275.099,36.250 275.032 C 36.333 275.015,36.400 275.081,36.400 275.180 C 36.400 275.416,37.925 276.208,38.080 276.053 C 38.146 275.987,38.200 276.029,38.200 276.146 C 38.200 276.406,39.712 277.222,39.880 277.053 C 39.946 276.987,40.000 277.044,40.000 277.178 C 40.000 277.313,40.090 277.368,40.200 277.300 C 40.310 277.232,40.400 277.264,40.400 277.370 C 40.400 277.578,42.200 278.523,42.450 278.446 C 42.533 278.421,42.600 278.484,42.600 278.588 C 42.600 278.823,45.729 280.404,45.886 280.248 C 45.948 280.185,46.000 280.244,46.000 280.378 C 46.000 280.513,46.090 280.568,46.200 280.500 C 46.310 280.432,46.400 280.477,46.400 280.600 C 46.400 280.723,46.490 280.768,46.600 280.700 C 46.710 280.632,46.800 280.668,46.800 280.780 C 46.800 281.036,54.401 284.823,54.631 284.681 C 54.724 284.623,54.800 284.677,54.800 284.800 C 54.800 284.923,54.890 284.968,55.000 284.900 C 55.110 284.832,55.200 284.877,55.200 285.000 C 55.200 285.123,55.282 285.173,55.383 285.111 C 55.484 285.048,55.596 285.070,55.633 285.159 C 55.745 285.428,58.622 286.810,58.818 286.689 C 58.918 286.627,59.000 286.656,59.000 286.753 C 59.000 286.933,60.939 287.900,61.300 287.900 C 61.410 287.900,61.554 287.973,61.620 288.063 C 61.686 288.153,61.879 288.247,62.050 288.272 C 62.220 288.297,62.497 288.431,62.664 288.570 C 62.831 288.709,63.155 288.837,63.384 288.854 C 63.613 288.871,63.800 288.945,63.800 289.018 C 63.800 289.155,64.667 289.542,65.200 289.643 C 65.365 289.674,65.545 289.745,65.600 289.800 C 65.891 290.091,66.641 290.398,66.808 290.295 C 66.914 290.230,67.000 290.257,67.000 290.356 C 67.000 290.600,67.984 291.033,68.215 290.891 C 68.317 290.828,68.400 290.857,68.400 290.956 C 68.400 291.200,69.384 291.633,69.615 291.491 C 69.717 291.428,69.801 291.449,69.802 291.538 C 69.804 291.763,70.818 292.213,71.028 292.083 C 71.123 292.024,71.200 292.077,71.200 292.200 C 71.200 292.323,71.290 292.368,71.400 292.300 C 71.510 292.232,71.600 292.254,71.600 292.348 C 71.600 292.516,72.903 293.089,73.300 293.096 C 73.410 293.098,73.623 293.217,73.773 293.359 C 73.923 293.501,74.148 293.584,74.271 293.543 C 74.395 293.502,74.621 293.593,74.774 293.745 C 74.927 293.898,75.175 293.976,75.326 293.918 C 75.477 293.860,75.600 293.905,75.600 294.018 C 75.600 294.131,75.690 294.168,75.800 294.100 C 75.910 294.032,76.000 294.079,76.000 294.205 C 76.000 294.331,76.112 294.396,76.248 294.351 C 76.385 294.305,76.621 294.393,76.774 294.545 C 76.927 294.698,77.169 294.778,77.313 294.723 C 77.457 294.668,77.602 294.704,77.637 294.805 C 77.717 295.037,80.340 295.993,80.489 295.845 C 80.550 295.783,80.600 295.848,80.600 295.988 C 80.600 296.128,80.729 296.193,80.887 296.133 C 81.045 296.072,81.204 296.111,81.240 296.220 C 81.276 296.329,81.507 296.433,81.753 296.451 C 81.999 296.470,82.200 296.566,82.200 296.664 C 82.200 296.762,82.329 296.793,82.487 296.733 C 82.645 296.672,82.804 296.711,82.840 296.820 C 82.876 296.929,83.107 297.033,83.353 297.051 C 83.599 297.070,83.800 297.166,83.800 297.264 C 83.800 297.362,83.929 297.393,84.087 297.333 C 84.245 297.272,84.402 297.299,84.437 297.393 C 84.472 297.487,84.680 297.594,84.900 297.632 C 85.120 297.669,85.356 297.776,85.424 297.870 C 85.492 297.963,85.784 298.053,86.074 298.070 C 86.363 298.086,86.600 298.158,86.600 298.228 C 86.600 298.352,87.487 298.666,87.900 298.689 C 88.010 298.695,88.156 298.776,88.224 298.870 C 88.292 298.963,88.584 299.053,88.874 299.070 C 89.163 299.086,89.400 299.177,89.400 299.271 C 89.400 299.366,89.535 299.391,89.700 299.328 C 89.865 299.264,90.000 299.285,90.000 299.375 C 90.000 299.552,91.548 300.101,91.950 300.066 C 92.087 300.054,92.200 300.134,92.200 300.244 C 92.200 300.353,92.335 300.391,92.500 300.328 C 92.665 300.264,92.800 300.309,92.800 300.428 C 92.800 300.546,92.935 300.591,93.100 300.528 C 93.265 300.464,93.400 300.509,93.400 300.628 C 93.400 300.746,93.535 300.791,93.700 300.728 C 93.865 300.664,94.000 300.709,94.000 300.828 C 94.000 300.946,94.135 300.991,94.300 300.928 C 94.465 300.864,94.600 300.909,94.600 301.028 C 94.600 301.146,94.735 301.191,94.900 301.128 C 95.065 301.064,95.200 301.109,95.200 301.228 C 95.200 301.346,95.335 301.391,95.500 301.328 C 95.665 301.264,95.800 301.309,95.800 301.428 C 95.800 301.546,95.935 301.591,96.100 301.528 C 96.265 301.464,96.400 301.504,96.400 301.615 C 96.400 301.726,96.513 301.799,96.650 301.777 C 96.788 301.754,97.170 301.857,97.500 302.006 C 98.233 302.335,104.200 302.543,104.200 302.239 C 104.200 302.131,104.470 301.754,104.799 301.401 C 105.129 301.048,105.340 300.665,105.268 300.549 C 105.197 300.433,105.226 300.392,105.332 300.458 C 105.534 300.583,106.330 299.424,106.241 299.135 C 106.213 299.044,106.273 299.021,106.374 299.084 C 106.554 299.195,106.895 298.648,106.832 298.350 C 106.814 298.267,106.890 298.200,107.000 298.200 C 107.110 298.200,107.200 298.065,107.200 297.900 C 107.200 297.735,107.284 297.600,107.386 297.600 C 107.489 297.600,107.777 297.314,108.026 296.964 C 108.289 296.594,108.357 296.392,108.189 296.481 C 108.030 296.566,108.125 296.449,108.400 296.222 C 108.675 295.995,108.810 295.806,108.700 295.801 C 108.568 295.796,108.568 295.744,108.701 295.647 C 109.034 295.404,110.032 294.000,109.872 294.000 C 109.790 294.000,109.898 293.868,110.112 293.706 C 110.325 293.545,110.415 293.410,110.312 293.406 C 110.208 293.403,110.298 293.268,110.512 293.106 C 110.725 292.945,110.829 292.810,110.742 292.806 C 110.655 292.803,110.754 292.618,110.960 292.397 C 111.167 292.175,111.463 291.747,111.618 291.447 C 111.773 291.146,112.035 290.790,112.200 290.656 C 112.365 290.522,112.415 290.410,112.312 290.406 C 112.208 290.403,112.271 290.288,112.451 290.150 C 112.631 290.012,112.805 289.768,112.839 289.607 C 112.873 289.446,113.098 289.093,113.339 288.821 C 113.581 288.549,113.733 288.254,113.677 288.164 C 113.622 288.074,113.669 288.000,113.783 288.000 C 113.974 288.000,114.595 286.998,114.618 286.652 C 114.624 286.568,114.757 286.428,114.914 286.340 C 115.071 286.252,115.200 286.102,115.200 286.008 C 115.200 285.913,115.511 285.362,115.892 284.785 C 116.272 284.207,116.542 283.669,116.493 283.588 C 116.443 283.508,116.515 283.399,116.653 283.346 C 116.792 283.293,117.111 282.835,117.364 282.329 C 117.617 281.823,117.908 281.357,118.012 281.293 C 118.115 281.229,118.200 281.002,118.200 280.788 C 118.200 280.575,118.295 280.400,118.412 280.400 C 118.528 280.400,118.574 280.319,118.513 280.221 C 118.452 280.122,118.537 279.990,118.701 279.927 C 118.866 279.864,119.000 279.630,119.000 279.406 C 119.000 279.183,119.095 279.000,119.212 279.000 C 119.328 279.000,119.374 278.919,119.313 278.821 C 119.252 278.722,119.337 278.590,119.501 278.527 C 119.666 278.464,119.800 278.268,119.800 278.092 C 119.800 277.916,119.936 277.636,120.102 277.470 C 120.268 277.304,120.358 277.094,120.303 277.005 C 120.248 276.915,120.337 276.790,120.501 276.727 C 120.666 276.664,120.800 276.468,120.800 276.292 C 120.800 276.116,120.936 275.836,121.102 275.670 C 121.268 275.504,121.358 275.294,121.303 275.205 C 121.248 275.115,121.325 274.995,121.475 274.937 C 121.626 274.879,121.810 274.589,121.884 274.292 C 121.959 273.995,122.151 273.620,122.312 273.460 C 122.472 273.299,122.553 273.085,122.490 272.984 C 122.428 272.883,122.477 272.800,122.600 272.800 C 122.723 272.800,122.768 272.710,122.700 272.600 C 122.632 272.490,122.660 272.400,122.762 272.400 C 123.020 272.400,124.830 268.811,124.688 268.581 C 124.624 268.478,124.489 268.445,124.386 268.509 C 124.284 268.572,124.200 268.535,124.200 268.428 C 124.200 268.243,123.072 267.880,122.750 267.962 C 122.668 267.983,122.600 267.902,122.600 267.783 C 122.600 267.664,122.488 267.604,122.352 267.649 C 122.215 267.695,121.980 267.608,121.829 267.457 C 121.677 267.306,121.452 267.216,121.329 267.257 C 121.205 267.298,120.980 267.208,120.829 267.057 C 120.677 266.906,120.452 266.816,120.329 266.857 C 120.205 266.898,119.980 266.808,119.829 266.657 C 119.677 266.506,119.452 266.416,119.329 266.457 C 119.205 266.498,118.979 266.407,118.826 266.255 C 118.673 266.102,118.425 266.024,118.274 266.082 C 118.123 266.140,118.000 266.100,118.000 265.994 C 118.000 265.887,117.933 265.818,117.850 265.840 C 117.767 265.863,117.314 265.679,116.843 265.433 C 116.372 265.186,115.899 265.039,115.793 265.104 C 115.687 265.170,115.600 265.143,115.600 265.044 C 115.600 264.800,114.616 264.367,114.385 264.509 C 114.283 264.572,114.200 264.537,114.200 264.431 C 114.200 264.224,113.061 263.717,112.650 263.741 C 112.513 263.749,112.400 263.689,112.400 263.608 C 112.400 263.437,110.788 262.741,110.522 262.797 C 110.425 262.817,110.281 262.730,110.202 262.604 C 110.124 262.477,109.932 262.355,109.777 262.332 C 109.621 262.309,109.159 262.084,108.750 261.831 C 108.342 261.579,107.916 261.429,107.804 261.498 C 107.692 261.567,107.600 261.523,107.600 261.400 C 107.600 261.277,107.510 261.232,107.400 261.300 C 107.290 261.368,107.200 261.323,107.200 261.200 C 107.200 261.077,107.118 261.027,107.017 261.089 C 106.916 261.152,106.804 261.131,106.767 261.044 C 106.663 260.797,100.646 257.821,100.515 257.951 C 100.452 258.015,100.400 257.956,100.400 257.822 C 100.400 257.687,100.310 257.632,100.200 257.700 C 100.090 257.768,100.000 257.731,100.000 257.618 C 100.000 257.404,97.814 256.278,97.550 256.356 C 97.468 256.380,97.400 256.305,97.400 256.188 C 97.400 256.072,97.310 256.032,97.200 256.100 C 97.090 256.168,97.000 256.137,97.000 256.032 C 97.000 255.788,95.480 254.987,95.320 255.147 C 95.254 255.213,95.200 255.168,95.200 255.048 C 95.200 254.928,94.952 254.702,94.650 254.547 C 93.648 254.034,92.503 253.365,92.310 253.181 C 92.205 253.082,91.958 253.000,91.760 253.000 C 91.562 253.000,91.400 252.905,91.400 252.788 C 91.400 252.672,91.319 252.626,91.221 252.687 C 90.940 252.861,90.759 252.158,91.023 251.917 C 91.198 251.756,91.222 251.777,91.115 252.000 C 91.036 252.165,91.212 252.030,91.507 251.700 C 91.803 251.370,91.974 251.228,91.889 251.384 C 91.685 251.758,94.963 249.303,95.572 248.625 C 95.832 248.336,95.983 248.235,95.907 248.400 C 95.832 248.565,96.012 248.430,96.307 248.100 C 96.603 247.770,96.783 247.635,96.707 247.800 C 96.632 247.965,96.783 247.853,97.043 247.550 C 97.303 247.248,97.620 247.000,97.748 247.000 C 97.875 247.000,98.072 246.842,98.184 246.650 C 98.296 246.457,98.391 246.379,98.394 246.474 C 98.397 246.570,98.529 246.542,98.687 246.411 C 98.902 246.233,99.080 246.229,99.391 246.395 C 99.621 246.518,99.896 246.564,100.004 246.497 C 100.112 246.431,100.200 246.477,100.200 246.600 C 100.200 246.723,100.290 246.768,100.400 246.700 C 100.510 246.632,100.600 246.654,100.600 246.750 C 100.600 246.942,102.136 247.667,102.543 247.667 C 102.684 247.667,102.800 247.725,102.800 247.796 C 102.800 247.950,104.113 248.486,104.315 248.415 C 104.392 248.388,104.510 248.441,104.578 248.533 C 104.806 248.844,105.615 249.214,105.808 249.095 C 105.914 249.030,106.001 249.049,106.002 249.138 C 106.004 249.363,107.018 249.813,107.228 249.683 C 107.323 249.624,107.400 249.661,107.400 249.765 C 107.400 249.938,108.018 250.226,108.500 250.278 C 108.610 250.290,108.824 250.418,108.976 250.562 C 109.127 250.705,109.369 250.778,109.513 250.723 C 109.657 250.668,109.802 250.691,109.837 250.774 C 109.909 250.949,113.573 252.451,113.950 252.460 C 114.088 252.464,114.200 252.549,114.200 252.650 C 114.200 252.751,114.312 252.796,114.448 252.751 C 114.585 252.705,114.816 252.788,114.962 252.934 C 115.187 253.158,115.515 253.232,116.107 253.193 C 116.166 253.189,116.353 253.324,116.521 253.493 C 116.781 253.752,117.101 253.833,117.707 253.793 C 117.766 253.789,117.958 253.929,118.133 254.104 C 118.308 254.280,118.569 254.378,118.713 254.323 C 118.857 254.268,119.002 254.305,119.037 254.405 C 119.072 254.506,119.325 254.613,119.600 254.644 C 119.875 254.675,120.153 254.772,120.218 254.860 C 120.283 254.948,120.530 255.035,120.768 255.053 C 121.006 255.070,121.200 255.166,121.200 255.264 C 121.200 255.362,121.335 255.391,121.500 255.328 C 121.665 255.264,121.800 255.285,121.800 255.373 C 121.800 255.578,123.212 256.016,123.433 255.880 C 123.525 255.823,123.600 255.881,123.600 256.010 C 123.600 256.138,123.735 256.191,123.900 256.128 C 124.065 256.064,124.200 256.109,124.200 256.228 C 124.200 256.346,124.335 256.391,124.500 256.328 C 124.665 256.264,124.800 256.309,124.800 256.428 C 124.800 256.546,124.935 256.591,125.100 256.528 C 125.265 256.464,125.400 256.509,125.400 256.628 C 125.400 256.746,125.535 256.791,125.700 256.728 C 125.865 256.664,126.000 256.704,126.000 256.815 C 126.000 256.926,126.113 257.000,126.250 256.978 C 126.388 256.956,126.841 257.090,127.259 257.276 C 127.676 257.461,128.104 257.560,128.209 257.495 C 128.314 257.430,128.400 257.476,128.400 257.597 C 128.400 257.718,128.513 257.799,128.650 257.777 C 128.787 257.754,129.151 257.839,129.457 257.966 C 129.763 258.092,130.078 258.177,130.157 258.155 C 130.236 258.133,130.510 258.231,130.767 258.374 C 131.024 258.516,131.286 258.581,131.349 258.518 C 131.412 258.455,131.586 258.506,131.736 258.630 C 131.887 258.755,132.067 258.800,132.136 258.730 C 132.206 258.661,132.375 258.697,132.513 258.810 C 132.858 259.097,136.818 260.212,137.029 260.082 C 137.123 260.024,137.200 260.082,137.200 260.212 C 137.200 260.346,137.367 260.403,137.590 260.345 C 137.805 260.288,138.008 260.321,138.040 260.418 C 138.073 260.514,138.370 260.628,138.700 260.670 C 139.030 260.712,139.570 260.856,139.900 260.989 C 140.230 261.123,140.792 261.247,141.149 261.266 C 141.506 261.285,141.799 261.378,141.799 261.473 C 141.800 261.569,141.980 261.600,142.200 261.542 C 142.420 261.485,142.600 261.530,142.600 261.642 C 142.600 261.755,142.780 261.800,143.000 261.742 C 143.220 261.685,143.400 261.709,143.400 261.796 C 143.400 261.946,144.416 262.217,145.300 262.303 C 145.520 262.325,146.195 262.482,146.800 262.654 C 147.405 262.825,148.035 262.968,148.200 262.972 C 148.789 262.987,149.302 263.102,149.408 263.244 C 149.467 263.323,149.917 263.433,150.408 263.489 C 150.899 263.545,151.655 263.677,152.089 263.783 C 152.523 263.889,152.950 263.931,153.039 263.876 C 153.128 263.821,153.200 263.878,153.200 264.003 C 153.200 264.127,153.403 264.208,153.650 264.183 C 153.898 264.159,154.325 264.201,154.600 264.278 C 154.875 264.355,155.325 264.445,155.600 264.479 C 155.875 264.512,156.460 264.639,156.900 264.761 C 157.340 264.882,158.169 265.023,158.743 265.075 C 159.317 265.126,159.879 265.225,159.992 265.295 C 160.106 265.365,160.671 265.469,161.249 265.527 C 161.827 265.584,162.570 265.675,162.900 265.730 C 163.230 265.785,163.725 265.860,164.000 265.898 C 164.275 265.936,164.500 265.982,164.500 265.999 C 164.500 266.079,166.859 266.427,168.000 266.515 C 168.385 266.545,168.700 266.589,168.700 266.613 C 168.700 266.637,169.060 266.682,169.500 266.712 C 169.940 266.742,170.300 266.781,170.300 266.799 C 170.300 266.858,171.090 266.978,172.300 267.103 C 172.960 267.172,173.725 267.259,174.000 267.298 C 175.413 267.499,178.029 267.731,180.700 267.894 C 181.250 267.927,182.285 268.010,183.000 268.078 C 190.475 268.790,204.219 268.893,214.000 268.311 C 214.935 268.255,216.510 268.165,217.500 268.109 C 218.490 268.054,220.155 267.915,221.200 267.800 C 224.214 267.470,225.046 267.393,225.900 267.366 C 226.340 267.352,226.777 267.298,226.872 267.245 C 226.966 267.192,227.371 267.122,227.772 267.088 C 230.584 266.852,233.300 266.512,233.300 266.396 C 233.300 266.378,233.615 266.338,234.000 266.308 C 234.385 266.279,234.700 266.236,234.700 266.214 C 234.700 266.192,235.173 266.130,235.751 266.077 C 236.329 266.023,237.454 265.848,238.251 265.686 C 239.048 265.525,240.150 265.347,240.700 265.291 C 241.250 265.234,241.835 265.133,242.000 265.066 C 242.398 264.905,243.008 264.792,243.500 264.788 C 243.720 264.787,244.260 264.685,244.700 264.563 C 245.140 264.440,245.745 264.310,246.044 264.272 C 246.343 264.235,246.973 264.111,247.444 263.998 C 247.915 263.884,248.701 263.745,249.192 263.689 C 249.683 263.633,250.133 263.523,250.192 263.444 C 250.298 263.302,250.808 263.188,251.400 263.172 C 251.565 263.168,252.015 263.064,252.400 262.942 C 252.785 262.820,253.257 262.744,253.450 262.773 C 253.643 262.802,253.800 262.724,253.800 262.601 C 253.800 262.477,253.876 262.423,253.969 262.481 C 254.062 262.538,254.489 262.482,254.919 262.356 C 255.348 262.230,255.777 262.147,255.871 262.171 C 255.965 262.195,256.153 262.122,256.289 262.009 C 256.425 261.896,256.586 261.853,256.646 261.913 C 256.782 262.049,259.220 261.430,259.518 261.184 C 259.639 261.085,259.794 261.061,259.864 261.130 C 259.933 261.200,260.105 261.173,260.245 261.071 C 260.385 260.969,260.770 260.857,261.100 260.824 C 261.430 260.790,261.730 260.680,261.767 260.580 C 261.804 260.480,261.910 260.444,262.003 260.502 C 262.216 260.634,264.000 260.165,264.000 259.977 C 264.000 259.900,264.180 259.885,264.400 259.942 C 264.632 260.003,264.800 259.948,264.800 259.812 C 264.800 259.682,264.884 259.628,264.986 259.691 C 265.089 259.755,265.224 259.724,265.286 259.622 C 265.349 259.521,265.580 259.485,265.800 259.542 C 266.033 259.603,266.200 259.548,266.200 259.412 C 266.200 259.282,266.284 259.228,266.386 259.291 C 266.489 259.355,266.630 259.314,266.700 259.200 C 266.770 259.086,266.911 259.045,267.014 259.109 C 267.116 259.172,267.309 259.156,267.442 259.074 C 267.574 258.992,267.911 258.901,268.189 258.871 C 268.467 258.841,268.726 258.723,268.764 258.607 C 268.803 258.492,268.916 258.448,269.017 258.511 C 269.118 258.573,269.309 258.556,269.442 258.474 C 269.574 258.392,269.911 258.301,270.189 258.271 C 270.467 258.241,270.724 258.128,270.760 258.020 C 270.796 257.911,270.955 257.872,271.113 257.933 C 271.271 257.993,271.400 257.966,271.400 257.871 C 271.401 257.777,271.692 257.679,272.049 257.654 C 272.405 257.629,272.726 257.522,272.762 257.415 C 272.797 257.309,272.955 257.272,273.113 257.333 C 273.271 257.393,273.400 257.338,273.400 257.210 C 273.400 257.081,273.478 257.024,273.573 257.083 C 273.780 257.211,277.473 256.005,277.563 255.780 C 277.598 255.693,277.755 255.672,277.913 255.733 C 278.071 255.793,278.200 255.743,278.200 255.621 C 278.200 255.500,278.268 255.417,278.350 255.438 C 278.619 255.506,279.800 255.172,279.800 255.028 C 279.800 254.950,280.048 254.867,280.350 254.842 C 280.653 254.817,280.928 254.712,280.963 254.610 C 280.998 254.507,281.143 254.468,281.287 254.523 C 281.431 254.578,281.673 254.505,281.824 254.362 C 281.976 254.218,282.321 254.075,282.591 254.045 C 282.861 254.015,283.142 253.895,283.214 253.778 C 283.286 253.661,283.404 253.580,283.476 253.598 C 283.789 253.675,284.800 253.350,284.800 253.172 C 284.800 253.065,284.890 253.032,285.000 253.100 C 285.110 253.168,285.200 253.147,285.200 253.054 C 285.200 252.961,285.386 252.871,285.613 252.854 C 286.214 252.809,287.800 252.174,287.800 251.979 C 287.800 251.888,287.923 251.860,288.074 251.918 C 288.225 251.976,288.473 251.898,288.626 251.745 C 288.779 251.593,289.005 251.502,289.129 251.543 C 289.252 251.584,289.488 251.483,289.653 251.318 C 289.818 251.154,289.997 251.064,290.052 251.119 C 290.171 251.238,292.071 250.366,292.167 250.149 C 292.204 250.066,292.310 250.044,292.402 250.101 C 292.620 250.236,293.600 249.790,293.600 249.556 C 293.600 249.457,293.683 249.428,293.785 249.491 C 294.016 249.633,295.000 249.200,295.000 248.956 C 295.000 248.857,295.086 248.830,295.192 248.895 C 295.385 249.014,296.194 248.644,296.422 248.333 C 296.490 248.241,296.625 248.183,296.722 248.203 C 297.017 248.266,298.600 247.553,298.600 247.358 C 298.600 247.258,298.694 247.234,298.809 247.305 C 298.924 247.376,299.261 247.273,299.559 247.075 C 299.856 246.877,300.233 246.695,300.396 246.669 C 300.559 246.643,300.725 246.526,300.763 246.410 C 300.802 246.293,300.916 246.248,301.017 246.311 C 301.118 246.373,301.200 246.328,301.200 246.212 C 301.200 245.860,301.568 246.058,302.528 246.928 C 303.031 247.383,303.680 247.875,303.971 248.021 C 304.262 248.167,304.709 248.515,304.964 248.794 C 305.220 249.072,305.368 249.165,305.293 249.000 C 305.217 248.835,305.397 248.970,305.693 249.300 C 305.988 249.630,306.168 249.765,306.093 249.600 C 306.017 249.435,306.197 249.570,306.493 249.900 C 306.788 250.230,306.970 250.365,306.897 250.200 C 306.825 250.035,306.951 250.125,307.178 250.400 C 307.405 250.675,307.593 250.812,307.596 250.705 C 307.598 250.599,307.741 250.713,307.914 250.959 C 308.086 251.205,308.311 251.355,308.414 251.292 C 308.516 251.228,308.600 251.272,308.600 251.388 C 308.600 251.505,308.725 251.600,308.879 251.600 C 309.032 251.600,309.211 251.741,309.277 251.913 C 309.343 252.085,309.482 252.173,309.585 252.109 C 309.688 252.046,309.829 252.085,309.898 252.197 C 309.967 252.309,309.880 252.400,309.706 252.400 C 309.531 252.400,309.336 252.534,309.273 252.699 C 309.210 252.863,309.078 252.948,308.979 252.887 C 308.881 252.826,308.800 252.872,308.800 252.988 C 308.800 253.105,308.643 253.202,308.450 253.204 C 308.257 253.207,307.875 253.385,307.600 253.600 C 307.325 253.815,306.985 253.993,306.844 253.996 C 306.703 253.998,306.536 254.134,306.473 254.299 C 306.410 254.463,306.278 254.548,306.179 254.487 C 306.081 254.426,306.000 254.472,306.000 254.588 C 306.000 254.705,305.817 254.800,305.594 254.800 C 305.370 254.800,305.136 254.934,305.073 255.099 C 305.010 255.263,304.885 255.352,304.795 255.297 C 304.706 255.242,304.496 255.332,304.330 255.498 C 304.164 255.664,303.887 255.800,303.714 255.800 C 303.541 255.800,303.220 255.980,303.000 256.200 C 302.780 256.420,302.600 256.560,302.600 256.512 C 302.600 256.463,301.880 256.784,301.000 257.224 C 300.120 257.664,299.400 258.115,299.400 258.224 C 299.400 258.334,299.310 258.368,299.200 258.300 C 299.090 258.232,299.000 258.277,299.000 258.400 C 299.000 258.523,298.910 258.568,298.800 258.500 C 298.690 258.432,298.600 258.477,298.600 258.600 C 298.600 258.723,298.510 258.768,298.400 258.700 C 298.290 258.632,298.200 258.677,298.200 258.800 C 298.200 258.923,298.110 258.968,298.000 258.900 C 297.890 258.832,297.800 258.872,297.800 258.988 C 297.800 259.105,297.731 259.177,297.646 259.150 C 297.399 259.070,295.800 259.843,295.800 260.042 C 295.800 260.142,295.710 260.168,295.600 260.100 C 295.490 260.032,295.400 260.077,295.400 260.200 C 295.400 260.323,295.310 260.368,295.200 260.300 C 295.090 260.232,295.000 260.277,295.000 260.400 C 295.000 260.523,294.910 260.568,294.800 260.500 C 294.690 260.432,294.600 260.477,294.600 260.600 C 294.600 260.723,294.510 260.768,294.400 260.700 C 294.290 260.632,294.200 260.677,294.200 260.800 C 294.200 260.923,294.118 260.973,294.018 260.911 C 293.822 260.790,290.945 262.172,290.833 262.441 C 290.796 262.530,290.680 262.549,290.574 262.484 C 290.469 262.419,290.139 262.527,289.841 262.725 C 289.544 262.923,289.167 263.105,289.004 263.131 C 288.841 263.157,288.675 263.274,288.637 263.390 C 288.598 263.507,288.490 263.555,288.397 263.498 C 288.182 263.365,286.800 264.015,286.800 264.249 C 286.800 264.345,286.714 264.370,286.608 264.305 C 286.441 264.202,285.691 264.509,285.400 264.800 C 285.345 264.855,285.210 264.910,285.100 264.922 C 284.618 264.974,284.000 265.262,284.000 265.435 C 284.000 265.539,283.916 265.572,283.813 265.508 C 283.711 265.445,283.132 265.620,282.526 265.897 C 281.921 266.173,281.330 266.400,281.213 266.400 C 281.096 266.400,281.000 266.495,281.000 266.612 C 281.000 266.728,280.910 266.768,280.800 266.700 C 280.690 266.632,280.600 266.669,280.600 266.782 C 280.600 266.895,280.465 266.936,280.300 266.872 C 280.135 266.809,280.000 266.862,280.000 266.990 C 280.000 267.119,279.910 267.168,279.800 267.100 C 279.690 267.032,279.600 267.087,279.600 267.222 C 279.600 267.356,279.548 267.415,279.485 267.352 C 279.345 267.212,277.000 267.983,277.000 268.168 C 277.000 268.241,276.766 268.314,276.480 268.330 C 275.730 268.374,275.407 268.758,275.847 269.083 C 276.038 269.224,276.135 269.398,276.064 269.470 C 275.992 269.541,276.044 269.600,276.178 269.600 C 276.313 269.600,276.368 269.690,276.300 269.800 C 276.232 269.910,276.277 270.000,276.400 270.000 C 276.523 270.000,276.568 270.090,276.500 270.200 C 276.432 270.310,276.472 270.400,276.588 270.400 C 276.705 270.400,276.782 270.468,276.760 270.550 C 276.695 270.799,277.016 271.600,277.182 271.600 C 277.267 271.600,277.446 271.965,277.580 272.411 C 277.713 272.856,277.952 273.271,278.110 273.332 C 278.268 273.392,278.348 273.522,278.287 273.621 C 278.226 273.719,278.287 273.800,278.422 273.800 C 278.556 273.800,278.613 273.854,278.547 273.920 C 278.378 274.088,279.194 275.600,279.454 275.600 C 279.571 275.600,279.613 275.654,279.547 275.720 C 279.378 275.888,280.194 277.400,280.454 277.400 C 280.571 277.400,280.610 277.456,280.541 277.526 C 280.472 277.595,280.637 278.045,280.908 278.526 C 281.179 279.006,281.635 279.828,281.922 280.350 C 282.210 280.873,282.556 281.390,282.692 281.500 C 282.828 281.610,282.931 281.765,282.920 281.844 C 282.909 281.922,283.050 282.162,283.234 282.377 C 283.417 282.591,283.515 282.819,283.450 282.883 C 283.386 282.947,283.438 283.000,283.567 283.000 C 283.695 283.000,283.800 283.135,283.800 283.300 C 283.800 283.465,283.895 283.600,284.012 283.600 C 284.128 283.600,284.168 283.690,284.100 283.800 C 284.032 283.910,284.072 284.000,284.188 284.000 C 284.305 284.000,284.400 284.135,284.400 284.300 C 284.400 284.465,284.495 284.600,284.612 284.600 C 284.728 284.600,284.770 284.687,284.705 284.793 C 284.639 284.899,284.769 285.169,284.993 285.393 C 285.217 285.617,285.400 285.845,285.400 285.900 C 285.400 285.955,285.400 286.068,285.400 286.152 C 285.400 286.236,285.603 286.531,285.850 286.809 C 286.098 287.087,286.327 287.446,286.361 287.607 C 286.395 287.768,286.531 287.990,286.663 288.100 C 286.796 288.210,287.014 288.548,287.148 288.850 C 287.282 289.153,287.489 289.400,287.608 289.400 C 287.726 289.400,287.770 289.487,287.705 289.593 C 287.639 289.699,287.769 289.969,287.993 290.193 C 288.217 290.417,288.387 290.622,288.370 290.650 C 288.308 290.753,291.646 295.703,291.820 295.767 C 291.921 295.804,291.957 295.907,291.902 295.997 C 291.847 296.086,292.059 296.435,292.374 296.773 C 292.690 297.110,292.910 297.423,292.865 297.469 C 292.819 297.514,293.079 297.850,293.441 298.215 C 293.803 298.580,293.965 298.802,293.800 298.707 C 293.503 298.537,294.223 299.438,294.800 299.959 C 295.067 300.200,295.067 300.212,294.800 300.072 C 294.500 299.915,295.123 300.815,295.929 301.703 C 296.165 301.963,296.312 302.221,296.257 302.276 C 296.202 302.331,297.461 302.376,299.056 302.376 C 301.761 302.376,303.400 302.149,303.400 301.773 C 303.400 301.685,303.535 301.664,303.700 301.728 C 303.865 301.791,304.000 301.746,304.000 301.628 C 304.000 301.509,304.135 301.464,304.300 301.528 C 304.465 301.591,304.600 301.538,304.600 301.410 C 304.600 301.281,304.678 301.225,304.773 301.283 C 304.981 301.412,308.073 300.405,308.163 300.180 C 308.198 300.093,308.355 300.072,308.513 300.133 C 308.671 300.193,308.800 300.146,308.800 300.028 C 308.800 299.909,308.935 299.864,309.100 299.928 C 309.265 299.991,309.400 299.938,309.400 299.810 C 309.400 299.681,309.475 299.623,309.567 299.680 C 309.788 299.816,311.200 299.378,311.200 299.173 C 311.200 299.085,311.335 299.064,311.500 299.128 C 311.665 299.191,311.800 299.162,311.800 299.064 C 311.800 298.966,312.001 298.870,312.247 298.851 C 312.493 298.833,312.724 298.729,312.760 298.620 C 312.796 298.511,312.955 298.472,313.113 298.533 C 313.271 298.593,313.400 298.566,313.400 298.471 C 313.400 298.377,313.637 298.286,313.926 298.270 C 314.216 298.253,314.508 298.163,314.576 298.070 C 314.644 297.976,314.880 297.869,315.100 297.832 C 315.320 297.794,315.530 297.681,315.567 297.580 C 315.604 297.480,315.706 297.442,315.794 297.496 C 316.017 297.634,317.200 297.200,317.200 296.980 C 317.200 296.881,317.268 296.811,317.350 296.824 C 317.842 296.901,318.412 296.760,318.679 296.493 C 318.847 296.324,319.034 296.189,319.093 296.193 C 319.685 296.232,320.013 296.158,320.237 295.934 C 320.384 295.788,320.615 295.705,320.752 295.751 C 320.888 295.796,321.000 295.721,321.000 295.583 C 321.000 295.446,321.050 295.383,321.111 295.445 C 321.173 295.506,321.825 295.333,322.561 295.060 C 323.298 294.788,324.148 294.474,324.450 294.363 C 324.753 294.252,325.000 294.074,325.000 293.969 C 325.000 293.863,325.085 293.829,325.188 293.893 C 325.392 294.019,328.257 292.813,328.367 292.555 C 328.404 292.468,328.512 292.446,328.607 292.504 C 328.801 292.624,330.662 291.809,330.767 291.558 C 330.804 291.470,330.910 291.444,331.002 291.501 C 331.220 291.636,332.200 291.190,332.200 290.956 C 332.200 290.857,332.277 290.824,332.372 290.883 C 332.582 291.013,333.596 290.563,333.598 290.338 C 333.599 290.249,333.696 290.236,333.813 290.308 C 333.930 290.380,334.177 290.302,334.363 290.134 C 334.548 289.966,334.790 289.826,334.900 289.824 C 335.216 289.816,336.800 289.131,336.800 289.002 C 336.800 288.938,336.987 288.871,337.216 288.854 C 337.445 288.837,337.769 288.709,337.936 288.570 C 338.103 288.431,338.387 288.296,338.567 288.270 C 338.746 288.243,338.925 288.126,338.963 288.010 C 339.002 287.893,339.108 287.843,339.199 287.899 C 339.353 287.994,341.377 287.083,341.600 286.819 C 341.655 286.753,341.835 286.673,342.000 286.640 C 342.546 286.531,345.000 285.303,345.000 285.138 C 345.000 285.049,345.090 285.032,345.200 285.100 C 345.310 285.168,345.400 285.123,345.400 285.000 C 345.400 284.877,345.490 284.832,345.600 284.900 C 345.710 284.968,345.800 284.923,345.800 284.800 C 345.800 284.677,345.878 284.625,345.974 284.684 C 346.186 284.815,353.672 281.082,353.767 280.799 C 353.804 280.688,353.916 280.648,354.017 280.711 C 354.118 280.773,354.200 280.723,354.200 280.600 C 354.200 280.477,354.290 280.432,354.400 280.500 C 354.510 280.568,354.600 280.513,354.600 280.378 C 354.600 280.244,354.654 280.187,354.720 280.253 C 354.889 280.423,358.000 278.803,358.000 278.546 C 358.000 278.429,358.054 278.387,358.120 278.453 C 358.293 278.626,360.600 277.417,360.600 277.154 C 360.600 277.033,360.654 276.987,360.720 277.053 C 360.880 277.213,362.400 276.412,362.400 276.168 C 362.400 276.063,362.483 276.028,362.584 276.090 C 362.685 276.153,362.904 276.068,363.070 275.902 C 363.236 275.736,363.508 275.600,363.676 275.600 C 363.843 275.600,364.072 275.443,364.184 275.250 C 364.296 275.058,364.391 274.970,364.394 275.055 C 364.404 275.302,365.600 274.614,365.600 274.362 C 365.600 274.236,365.656 274.190,365.725 274.259 C 365.903 274.436,367.000 273.836,367.000 273.562 C 367.000 273.436,367.056 273.390,367.125 273.459 C 367.295 273.628,368.400 273.043,368.400 272.783 C 368.400 272.669,368.490 272.632,368.600 272.700 C 368.710 272.768,368.800 272.728,368.800 272.612 C 368.800 272.495,368.929 272.400,369.086 272.400 C 369.475 272.400,371.800 271.000,371.800 270.765 C 371.800 270.661,371.887 270.630,371.993 270.695 C 372.099 270.761,372.354 270.654,372.559 270.457 C 372.765 270.261,373.049 270.074,373.191 270.042 C 373.596 269.951,375.400 268.725,375.400 268.541 C 375.400 268.451,375.490 268.432,375.600 268.500 C 375.710 268.568,375.800 268.528,375.800 268.412 C 375.800 268.295,375.868 268.219,375.950 268.241 C 376.182 268.305,377.400 267.612,377.400 267.417 C 377.400 267.321,377.627 267.186,377.905 267.117 C 378.183 267.047,378.588 266.812,378.805 266.595 C 379.022 266.378,379.238 266.223,379.284 266.250 C 379.330 266.278,379.578 266.118,379.834 265.895 C 380.321 265.471,380.462 265.400,380.812 265.400 C 380.928 265.400,380.959 265.296,380.881 265.169 C 380.794 265.029,380.826 264.992,380.962 265.076 C 381.085 265.152,381.369 265.031,381.593 264.807 C 381.817 264.583,382.000 264.450,382.000 264.510 C 382.000 264.648,383.476 263.555,383.567 263.349 C 383.604 263.266,383.717 263.249,383.818 263.311 C 383.920 263.374,384.057 263.285,384.122 263.114 C 384.188 262.942,384.323 262.852,384.422 262.914 C 384.522 262.975,384.657 262.885,384.722 262.714 C 384.788 262.542,384.923 262.452,385.022 262.514 C 385.122 262.575,385.257 262.485,385.322 262.314 C 385.388 262.142,385.523 262.052,385.622 262.114 C 385.722 262.175,385.857 262.085,385.922 261.914 C 385.988 261.742,386.123 261.652,386.222 261.714 C 386.322 261.775,386.457 261.685,386.522 261.514 C 386.588 261.342,386.717 261.249,386.809 261.305 C 386.900 261.362,387.068 261.249,387.182 261.054 C 387.295 260.859,387.391 260.772,387.394 260.860 C 387.400 261.027,388.790 260.052,389.047 259.701 C 389.144 259.568,389.196 259.568,389.201 259.700 C 389.206 259.810,389.395 259.675,389.622 259.400 C 389.849 259.125,389.975 259.035,389.902 259.200 C 389.829 259.365,389.952 259.294,390.174 259.041 C 390.396 258.789,390.636 258.596,390.707 258.612 C 390.778 258.628,391.053 258.452,391.318 258.222 C 391.583 257.991,391.800 257.853,391.800 257.915 C 391.800 258.078,392.811 257.332,393.487 256.670 C 393.807 256.357,394.002 256.235,393.919 256.400 C 393.837 256.565,393.948 256.498,394.167 256.250 C 394.385 256.003,394.630 255.800,394.710 255.800 C 394.790 255.800,394.985 255.642,395.143 255.450 C 395.301 255.257,395.363 255.229,395.281 255.386 C 395.089 255.753,396.551 254.694,397.172 254.016 C 397.432 253.732,397.574 253.629,397.488 253.786 C 397.402 253.944,397.663 253.820,398.068 253.511 C 398.787 252.962,399.014 252.514,398.986 251.700 C 398.979 251.480,399.020 250.940,399.079 250.500 C 399.178 249.751,399.455 246.511,399.753 242.600 C 399.964 239.843,399.985 196.085,399.777 194.200 C 399.674 193.265,399.551 191.915,399.504 191.200 C 399.457 190.485,399.376 189.405,399.325 188.800 C 399.274 188.195,399.183 187.070,399.125 186.300 C 399.008 184.777,398.897 183.753,398.580 181.300 C 398.466 180.420,398.346 179.340,398.313 178.900 C 398.280 178.460,398.231 178.055,398.203 178.000 C 398.175 177.945,398.163 177.833,398.176 177.752 C 398.188 177.670,398.107 176.995,397.995 176.252 C 397.883 175.508,397.756 174.432,397.713 173.860 C 397.669 173.288,397.571 172.624,397.495 172.384 C 397.419 172.144,397.331 171.667,397.299 171.324 C 397.126 169.455,396.884 167.700,396.799 167.700 C 396.754 167.700,396.653 166.900,396.510 165.403 C 396.442 164.690,396.306 164.026,396.209 163.929 C 396.111 163.831,396.079 163.627,396.137 163.476 C 396.195 163.324,396.179 163.043,396.101 162.850 C 395.981 162.554,395.861 161.791,395.756 160.650 C 395.744 160.513,395.681 160.400,395.617 160.399 C 395.553 160.398,395.475 159.971,395.445 159.450 C 395.414 158.929,395.287 158.142,395.163 157.701 C 394.862 156.632,394.790 156.205,394.799 155.550 C 394.803 155.248,394.710 155.000,394.591 155.000 C 394.473 155.000,394.430 154.913,394.496 154.807 C 394.641 154.572,393.977 151.000,393.789 151.000 C 393.716 151.000,393.698 150.775,393.751 150.500 C 393.804 150.225,393.765 150.000,393.666 150.000 C 393.567 150.000,393.474 149.843,393.460 149.650 C 393.371 148.443,393.155 147.281,392.914 146.701 C 392.760 146.334,392.678 145.989,392.731 145.936 C 392.817 145.849,392.533 144.597,392.246 143.800 C 392.187 143.635,392.158 143.343,392.182 143.150 C 392.206 142.958,392.124 142.800,392.001 142.800 C 391.877 142.800,391.831 142.712,391.897 142.604 C 392.003 142.433,391.773 141.308,391.446 140.400 C 391.387 140.235,391.321 140.010,391.300 139.900 C 391.278 139.790,391.242 139.655,391.219 139.600 C 391.196 139.545,391.143 139.185,391.103 138.800 C 391.062 138.415,390.917 137.830,390.782 137.500 C 390.646 137.170,390.553 136.823,390.575 136.729 C 390.596 136.635,390.522 136.447,390.409 136.311 C 390.296 136.175,390.261 136.006,390.330 135.936 C 390.400 135.867,390.373 135.695,390.271 135.555 C 390.169 135.415,390.057 135.030,390.022 134.700 C 389.987 134.370,389.901 134.055,389.830 134.000 C 389.758 133.945,389.675 133.589,389.644 133.208 C 389.612 132.827,389.522 132.467,389.444 132.408 C 389.365 132.349,389.271 132.030,389.236 131.700 C 389.201 131.370,389.098 131.073,389.007 131.040 C 388.917 131.008,388.888 130.805,388.945 130.590 C 389.001 130.376,388.966 130.200,388.867 130.200 C 388.768 130.200,388.668 129.969,388.645 129.687 C 388.584 128.957,387.650 125.801,387.407 125.508 C 387.295 125.374,387.257 125.210,387.322 125.145 C 387.387 125.080,387.366 124.908,387.275 124.763 C 387.185 124.618,387.104 124.410,387.095 124.300 C 387.044 123.619,386.726 122.600,386.566 122.600 C 386.462 122.600,386.431 122.512,386.497 122.404 C 386.564 122.296,386.508 122.004,386.373 121.754 C 386.238 121.504,386.097 121.030,386.060 120.700 C 386.023 120.370,385.904 120.070,385.795 120.033 C 385.687 119.996,385.646 119.887,385.705 119.792 C 385.764 119.696,385.661 119.276,385.476 118.859 C 385.290 118.441,385.156 117.988,385.178 117.850 C 385.200 117.713,385.118 117.600,384.997 117.600 C 384.876 117.600,384.824 117.523,384.883 117.428 C 385.010 117.221,383.006 111.127,382.781 111.037 C 382.694 111.002,382.672 110.845,382.733 110.687 C 382.793 110.529,382.743 110.400,382.621 110.400 C 382.500 110.400,382.418 110.333,382.440 110.250 C 382.518 109.964,382.181 108.600,382.033 108.600 C 381.952 108.600,381.870 108.399,381.851 108.153 C 381.833 107.907,381.729 107.676,381.620 107.640 C 381.511 107.604,381.472 107.445,381.533 107.287 C 381.593 107.129,381.566 107.000,381.471 107.000 C 381.377 107.000,381.286 106.763,381.270 106.474 C 381.253 106.184,381.163 105.892,381.070 105.824 C 380.976 105.756,380.869 105.520,380.832 105.300 C 380.794 105.080,380.687 104.872,380.593 104.837 C 380.499 104.802,380.472 104.645,380.533 104.487 C 380.593 104.329,380.546 104.200,380.428 104.200 C 380.309 104.200,380.260 104.077,380.318 103.926 C 380.376 103.775,380.287 103.516,380.121 103.350 C 379.955 103.184,379.860 103.006,379.910 102.956 C 380.052 102.815,379.583 101.600,379.387 101.600 C 379.291 101.600,379.264 101.465,379.328 101.300 C 379.393 101.130,379.332 101.000,379.188 101.000 C 379.048 101.000,378.985 100.948,379.049 100.884 C 379.209 100.724,378.604 99.000,378.387 99.000 C 378.291 99.000,378.264 98.865,378.328 98.700 C 378.391 98.535,378.338 98.400,378.210 98.400 C 378.081 98.400,378.032 98.310,378.100 98.200 C 378.168 98.090,378.123 98.000,378.000 98.000 C 377.877 98.000,377.826 97.920,377.887 97.822 C 377.947 97.724,377.826 97.251,377.617 96.772 C 377.407 96.292,377.079 95.540,376.887 95.100 C 376.695 94.660,376.552 94.233,376.569 94.150 C 376.586 94.068,376.513 94.000,376.406 94.000 C 376.300 94.000,376.264 93.865,376.328 93.700 C 376.391 93.535,376.338 93.400,376.210 93.400 C 376.081 93.400,376.032 93.310,376.100 93.200 C 376.168 93.090,376.123 93.000,376.000 93.000 C 375.877 93.000,375.830 92.913,375.896 92.807 C 375.961 92.701,375.814 92.228,375.567 91.757 C 375.321 91.286,375.137 90.832,375.160 90.750 C 375.182 90.668,375.105 90.600,374.988 90.600 C 374.872 90.600,374.824 90.523,374.883 90.428 C 375.013 90.218,374.563 89.204,374.338 89.202 C 374.249 89.201,374.228 89.117,374.291 89.015 C 374.433 88.784,374.000 87.800,373.756 87.800 C 373.657 87.800,373.630 87.714,373.695 87.608 C 373.798 87.441,373.491 86.691,373.200 86.400 C 373.145 86.345,373.093 86.210,373.085 86.100 C 373.055 85.696,372.556 84.600,372.403 84.600 C 372.316 84.600,372.251 84.488,372.259 84.350 C 372.283 83.939,371.776 82.800,371.569 82.800 C 371.463 82.800,371.428 82.716,371.492 82.613 C 371.594 82.448,370.899 80.860,370.611 80.600 C 370.550 80.545,370.500 80.410,370.500 80.300 C 370.500 79.939,369.533 78.000,369.353 78.000 C 369.256 78.000,369.232 77.910,369.300 77.800 C 369.368 77.690,369.323 77.600,369.200 77.600 C 369.077 77.600,369.034 77.507,369.104 77.394 C 369.174 77.281,368.979 76.763,368.671 76.244 C 368.363 75.725,368.107 75.255,368.103 75.200 C 368.077 74.857,367.519 73.800,367.364 73.800 C 367.261 73.800,367.232 73.710,367.300 73.600 C 367.368 73.490,367.323 73.400,367.200 73.400 C 367.077 73.400,367.032 73.310,367.100 73.200 C 367.168 73.090,367.123 73.000,367.000 73.000 C 366.877 73.000,366.832 72.910,366.900 72.800 C 366.968 72.690,366.923 72.600,366.800 72.600 C 366.677 72.600,366.632 72.510,366.700 72.400 C 366.768 72.290,366.723 72.200,366.600 72.200 C 366.477 72.200,366.430 72.114,366.494 72.009 C 366.647 71.762,364.663 67.800,364.386 67.800 C 364.271 67.800,364.232 67.710,364.300 67.600 C 364.368 67.490,364.323 67.400,364.200 67.400 C 364.077 67.400,364.032 67.310,364.100 67.200 C 364.168 67.090,364.123 67.000,364.000 67.000 C 363.877 67.000,363.832 66.910,363.900 66.800 C 363.968 66.690,363.923 66.600,363.800 66.600 C 363.677 66.600,363.632 66.510,363.700 66.400 C 363.768 66.290,363.713 66.200,363.578 66.200 C 363.444 66.200,363.386 66.147,363.451 66.082 C 363.613 65.920,361.818 62.400,361.574 62.400 C 361.465 62.400,361.432 62.310,361.500 62.200 C 361.568 62.090,361.523 62.000,361.400 62.000 C 361.277 62.000,361.228 61.917,361.290 61.816 C 361.353 61.715,361.281 61.510,361.132 61.361 C 360.983 61.211,360.750 60.755,360.615 60.346 C 360.480 59.937,360.219 59.515,360.035 59.408 C 359.851 59.300,359.764 59.209,359.842 59.206 C 360.056 59.197,359.008 57.200,358.789 57.200 C 358.685 57.200,358.614 57.133,358.631 57.050 C 358.688 56.771,357.996 55.400,357.797 55.400 C 357.689 55.400,357.615 55.333,357.632 55.250 C 357.699 54.942,357.201 54.000,356.972 54.000 C 356.841 54.000,356.790 53.944,356.859 53.874 C 356.928 53.805,356.763 53.355,356.492 52.874 C 356.221 52.394,355.765 51.572,355.478 51.050 C 355.190 50.527,354.832 50.001,354.681 49.880 C 354.530 49.759,354.465 49.602,354.536 49.530 C 354.608 49.459,354.562 49.400,354.433 49.400 C 354.305 49.400,354.200 49.270,354.200 49.111 C 354.200 48.717,353.406 47.400,353.168 47.400 C 353.063 47.400,353.030 47.313,353.095 47.207 C 353.161 47.101,353.039 46.839,352.824 46.624 C 352.609 46.409,352.486 46.181,352.550 46.117 C 352.614 46.053,352.562 46.000,352.433 46.000 C 352.305 46.000,352.200 45.865,352.200 45.700 C 352.200 45.535,352.105 45.400,351.988 45.400 C 351.872 45.400,351.832 45.310,351.900 45.200 C 351.968 45.090,351.928 45.000,351.812 45.000 C 351.695 45.000,351.600 44.865,351.600 44.700 C 351.600 44.535,351.505 44.400,351.388 44.400 C 351.272 44.400,351.230 44.313,351.295 44.207 C 351.361 44.101,351.231 43.831,351.007 43.607 C 350.783 43.383,350.613 43.148,350.628 43.084 C 350.681 42.866,349.775 41.400,349.587 41.400 C 349.484 41.400,349.400 41.265,349.400 41.100 C 349.400 40.935,349.305 40.800,349.188 40.800 C 349.072 40.800,349.025 40.721,349.085 40.624 C 349.187 40.459,348.528 39.451,348.140 39.178 C 348.044 39.110,347.974 38.998,347.983 38.928 C 348.028 38.590,347.968 38.460,347.550 37.991 C 347.303 37.713,347.073 37.354,347.039 37.193 C 347.005 37.032,346.842 36.796,346.676 36.668 C 346.509 36.541,346.376 36.361,346.379 36.268 C 346.383 36.176,346.216 35.905,346.009 35.667 C 345.802 35.429,345.683 35.184,345.745 35.122 C 345.807 35.060,345.710 34.953,345.530 34.884 C 345.350 34.815,345.250 34.681,345.308 34.586 C 345.367 34.492,345.231 34.231,345.007 34.007 C 344.783 33.783,344.668 33.597,344.750 33.594 C 344.832 33.590,344.765 33.478,344.600 33.344 C 344.435 33.210,344.173 32.854,344.018 32.553 C 343.863 32.253,343.576 31.835,343.380 31.625 C 343.184 31.415,343.077 31.190,343.141 31.126 C 343.205 31.062,343.110 30.953,342.930 30.884 C 342.750 30.815,342.652 30.677,342.714 30.578 C 342.775 30.478,342.685 30.343,342.514 30.278 C 342.342 30.212,342.252 30.077,342.314 29.978 C 342.375 29.878,342.285 29.743,342.114 29.678 C 341.942 29.612,341.852 29.477,341.914 29.378 C 341.975 29.278,341.885 29.143,341.714 29.078 C 341.542 29.012,341.452 28.877,341.514 28.778 C 341.575 28.678,341.485 28.543,341.314 28.478 C 341.142 28.412,341.049 28.283,341.105 28.191 C 341.162 28.100,341.094 27.952,340.954 27.862 C 340.814 27.773,340.573 27.454,340.418 27.153 C 340.263 26.853,339.976 26.435,339.780 26.225 C 339.584 26.015,339.470 25.796,339.527 25.739 C 339.683 25.584,337.592 24.581,337.382 24.711 C 337.282 24.773,337.200 24.737,337.200 24.631 C 337.200 24.452,336.146 23.948,335.700 23.915 C 335.590 23.907,335.455 23.845,335.400 23.778 C 335.169 23.495,333.973 22.993,333.794 23.104 C 333.687 23.170,333.600 23.139,333.600 23.035 C 333.600 22.862,332.982 22.574,332.500 22.522 C 332.390 22.510,332.255 22.455,332.200 22.400 C 331.909 22.109,331.159 21.802,330.992 21.905 C 330.886 21.970,330.800 21.939,330.800 21.835 C 330.800 21.662,330.182 21.374,329.700 21.322 C 329.590 21.310,329.376 21.182,329.224 21.038 C 329.073 20.895,328.831 20.822,328.687 20.877 C 328.543 20.932,328.398 20.911,328.363 20.829 C 328.271 20.614,326.374 19.759,326.254 19.879 C 326.198 19.935,326.018 19.846,325.853 19.682 C 325.688 19.517,325.452 19.416,325.329 19.457 C 325.205 19.498,324.980 19.408,324.829 19.257 C 324.677 19.106,324.452 19.016,324.329 19.057 C 324.205 19.098,323.979 19.007,323.826 18.855 C 323.673 18.702,323.431 18.622,323.287 18.677 C 323.143 18.732,322.998 18.696,322.963 18.595 C 322.883 18.363,320.260 17.407,320.111 17.555 C 320.050 17.617,320.000 17.552,320.000 17.412 C 320.000 17.268,319.870 17.207,319.700 17.272 C 319.535 17.336,319.400 17.309,319.400 17.213 C 319.400 16.988,318.209 16.571,317.977 16.714 C 317.880 16.774,317.800 16.737,317.800 16.631 C 317.800 16.403,316.624 15.961,316.394 16.104 C 316.306 16.158,316.204 16.120,316.167 16.020 C 316.130 15.919,315.920 15.806,315.700 15.768 C 315.480 15.731,315.255 15.642,315.200 15.571 C 315.145 15.499,314.875 15.409,314.600 15.371 C 314.325 15.332,314.047 15.228,313.982 15.140 C 313.917 15.052,313.670 14.965,313.432 14.947 C 313.194 14.930,313.000 14.859,313.000 14.791 C 313.000 14.612,311.565 14.198,311.367 14.320 C 311.275 14.377,311.200 14.335,311.200 14.228 C 311.200 14.043,310.072 13.680,309.750 13.762 C 309.668 13.783,309.600 13.700,309.600 13.579 C 309.600 13.457,309.465 13.409,309.300 13.472 C 309.135 13.536,309.000 13.491,309.000 13.372 C 309.000 13.254,308.871 13.207,308.713 13.267 C 308.555 13.328,308.398 13.307,308.363 13.220 C 308.273 12.994,303.980 11.589,303.772 11.717 C 303.678 11.776,303.600 11.719,303.600 11.590 C 303.600 11.462,303.465 11.409,303.300 11.472 C 303.135 11.536,303.000 11.496,303.000 11.385 C 303.000 11.274,302.887 11.201,302.750 11.223 C 302.613 11.246,302.245 11.159,301.933 11.031 C 301.621 10.902,301.284 10.848,301.183 10.910 C 301.082 10.973,301.000 10.919,301.000 10.790 C 301.000 10.662,300.871 10.607,300.713 10.667 C 300.555 10.728,300.398 10.695,300.363 10.595 C 300.328 10.494,300.075 10.387,299.800 10.356 C 299.525 10.325,299.250 10.234,299.190 10.153 C 299.129 10.072,298.814 9.975,298.490 9.939 C 298.165 9.902,297.703 9.766,297.463 9.636 C 297.222 9.506,296.768 9.371,296.454 9.337 C 296.139 9.302,295.770 9.205,295.634 9.121 C 295.219 8.864,292.753 8.205,292.588 8.307 C 292.504 8.360,292.404 8.330,292.367 8.242 C 292.270 8.010,289.221 7.163,288.993 7.305 C 288.887 7.370,288.800 7.347,288.800 7.253 C 288.800 7.035,287.032 6.557,286.786 6.709 C 286.684 6.772,286.600 6.740,286.600 6.637 C 286.600 6.484,285.544 6.190,284.700 6.109 C 284.590 6.098,284.387 6.019,284.250 5.933 C 284.113 5.847,283.918 5.827,283.817 5.889 C 283.716 5.952,283.604 5.927,283.567 5.835 C 283.485 5.628,279.991 4.742,279.843 4.890 C 279.785 4.949,279.625 4.904,279.489 4.791 C 279.353 4.678,279.165 4.605,279.071 4.629 C 278.977 4.653,278.548 4.570,278.119 4.444 C 277.689 4.318,277.269 4.257,277.186 4.309 C 277.102 4.360,277.004 4.311,276.966 4.199 C 276.908 4.024,275.964 3.829,274.750 3.740 C 274.558 3.726,274.400 3.645,274.400 3.559 C 274.400 3.474,274.197 3.403,273.950 3.400 C 273.054 3.392,272.600 3.311,272.600 3.159 C 272.600 3.074,272.397 3.009,272.150 3.015 C 271.494 3.031,270.916 2.921,270.792 2.756 C 270.733 2.677,270.283 2.564,269.792 2.505 C 268.705 2.373,268.291 2.297,266.502 1.898 C 265.734 1.727,264.879 1.558,264.602 1.523 C 264.326 1.488,263.740 1.360,263.300 1.237 C 262.860 1.115,262.320 1.013,262.100 1.012 C 261.583 1.008,260.985 0.892,260.571 0.714 C 260.389 0.637,260.119 0.595,259.971 0.622 C 259.822 0.648,259.308 0.558,258.829 0.422 C 258.350 0.285,257.843 0.217,257.703 0.271 C 257.563 0.325,257.354 0.274,257.238 0.158 C 256.981 -0.099,256.324 0.116,256.499 0.399 C 256.568 0.509,256.533 0.600,256.422 0.600 C 256.176 0.600,255.187 2.520,255.350 2.683 C 255.414 2.747,255.367 2.800,255.246 2.800 C 254.983 2.800,253.774 5.107,253.947 5.280 C 254.013 5.346,253.956 5.400,253.822 5.400 C 253.687 5.400,253.632 5.490,253.700 5.600 C 253.768 5.710,253.723 5.800,253.600 5.800 C 253.477 5.800,253.432 5.890,253.500 6.000 C 253.568 6.110,253.536 6.200,253.430 6.200 C 253.177 6.200,249.977 12.601,250.117 12.827 C 250.176 12.922,250.123 13.000,250.000 13.000 C 249.877 13.000,249.832 13.090,249.900 13.200 C 249.968 13.310,249.947 13.400,249.853 13.400 C 249.679 13.400,248.507 15.741,248.503 16.100 C 248.501 16.210,248.450 16.345,248.389 16.400 C 248.101 16.660,247.406 18.248,247.508 18.413 C 247.572 18.516,247.539 18.600,247.436 18.600 C 247.231 18.600,246.733 19.677,246.733 20.122 C 246.733 20.275,246.653 20.400,246.555 20.400 C 246.457 20.400,246.424 20.477,246.482 20.571 C 246.593 20.751,245.732 21.663,245.585 21.521 C 245.493 21.430,243.722 21.172,242.600 21.085 C 242.215 21.055,241.900 21.011,241.900 20.989 C 241.900 20.966,241.540 20.916,241.100 20.879 C 240.660 20.841,239.985 20.765,239.600 20.709 C 236.987 20.330,235.933 20.218,235.791 20.306 C 235.701 20.361,235.578 20.326,235.517 20.228 C 235.457 20.130,235.068 20.046,234.653 20.042 C 234.239 20.039,233.855 20.020,233.800 20.001 C 233.382 19.858,223.566 18.951,223.280 19.029 C 223.181 19.056,222.605 19.013,222.000 18.934 C 221.395 18.855,219.955 18.748,218.800 18.696 C 217.645 18.644,214.765 18.509,212.400 18.396 C 210.035 18.283,207.560 18.198,206.900 18.207 C 206.240 18.216,202.370 18.227,198.300 18.231 C 194.230 18.235,190.405 18.270,189.800 18.309 C 189.195 18.348,187.350 18.427,185.700 18.486 C 184.050 18.544,182.115 18.656,181.400 18.735 C 180.685 18.813,180.024 18.857,179.930 18.832 C 179.837 18.807,178.667 18.884,177.330 19.002 C 175.994 19.121,174.405 19.262,173.800 19.315 C 173.195 19.369,172.205 19.452,171.600 19.499 C 170.412 19.593,169.169 19.713,167.900 19.856 C 167.460 19.906,166.380 20.016,165.500 20.100 C 163.989 20.245,163.300 20.337,163.300 20.395 C 163.300 20.409,162.760 20.464,162.100 20.518 C 161.440 20.572,160.707 20.649,160.470 20.691 C 160.234 20.732,159.514 20.831,158.870 20.910 C 157.652 21.060,157.100 21.150,157.100 21.197 C 157.100 21.213,156.740 21.252,156.300 21.285 C 155.860 21.318,155.205 21.410,154.844 21.490 C 154.484 21.569,154.213 21.559,154.242 21.467 C 154.324 21.214,153.590 19.400,153.406 19.400 C 153.317 19.400,153.251 19.288,153.259 19.150 C 153.283 18.739,152.776 17.600,152.569 17.600 C 152.463 17.600,152.428 17.516,152.492 17.413 C 152.615 17.214,151.828 15.546,151.558 15.433 C 151.470 15.396,151.448 15.284,151.511 15.183 C 151.573 15.082,151.523 15.000,151.400 15.000 C 151.277 15.000,151.226 14.920,151.286 14.823 C 151.409 14.624,149.638 10.938,149.370 10.833 C 149.275 10.796,149.248 10.684,149.311 10.583 C 149.373 10.482,149.323 10.400,149.200 10.400 C 149.077 10.400,149.032 10.310,149.100 10.200 C 149.168 10.090,149.123 10.000,149.000 10.000 C 148.877 10.000,148.832 9.910,148.900 9.800 C 148.968 9.690,148.923 9.600,148.800 9.600 C 148.677 9.600,148.632 9.510,148.700 9.400 C 148.768 9.290,148.723 9.200,148.600 9.200 C 148.477 9.200,148.432 9.110,148.500 9.000 C 148.568 8.890,148.523 8.800,148.400 8.800 C 148.277 8.800,148.232 8.710,148.300 8.600 C 148.368 8.490,148.313 8.400,148.178 8.400 C 148.044 8.400,147.988 8.346,148.054 8.279 C 148.212 8.121,146.201 4.200,145.961 4.200 C 145.859 4.200,145.832 4.110,145.900 4.000 C 145.968 3.890,145.923 3.800,145.800 3.800 C 145.677 3.800,145.628 3.717,145.690 3.616 C 145.753 3.515,145.668 3.296,145.502 3.130 C 145.336 2.964,145.200 2.687,145.200 2.514 C 145.200 2.341,145.020 2.020,144.800 1.800 C 144.580 1.580,144.418 1.378,144.439 1.350 C 144.460 1.323,144.351 1.015,144.197 0.666 C 143.907 0.010,143.701 -0.047,142.683 0.250 M135.500 127.078 C 136.710 127.129,137.700 127.184,137.700 127.201 C 137.700 127.266,138.540 127.394,139.300 127.446 C 139.740 127.476,140.151 127.568,140.213 127.652 C 140.275 127.735,140.702 127.825,141.162 127.852 C 141.622 127.878,141.998 127.957,141.999 128.028 C 142.000 128.164,143.332 128.495,143.750 128.463 C 143.888 128.453,144.000 128.534,144.000 128.644 C 144.000 128.753,144.129 128.793,144.287 128.733 C 144.445 128.672,144.602 128.705,144.637 128.805 C 144.672 128.906,144.925 129.013,145.200 129.044 C 145.475 129.075,145.824 129.218,145.976 129.362 C 146.127 129.505,146.369 129.578,146.513 129.523 C 146.657 129.468,146.802 129.491,146.837 129.576 C 146.937 129.819,150.552 131.582,150.682 131.451 C 150.747 131.386,150.800 131.438,150.800 131.567 C 150.800 131.695,150.890 131.800,151.000 131.800 C 151.110 131.800,151.383 131.983,151.607 132.207 C 151.831 132.431,152.092 132.567,152.186 132.508 C 152.281 132.450,152.415 132.550,152.484 132.730 C 152.553 132.910,152.663 133.003,152.730 132.937 C 152.796 132.871,153.025 133.016,153.240 133.259 C 153.455 133.501,153.569 133.565,153.493 133.400 C 153.418 133.235,153.597 133.370,153.893 133.700 C 154.188 134.030,154.366 134.165,154.288 134.000 C 154.211 133.835,154.435 134.015,154.787 134.400 C 155.139 134.785,155.363 134.965,155.285 134.800 C 155.206 134.635,155.477 134.883,155.887 135.350 C 156.296 135.817,156.737 136.203,156.866 136.208 C 156.995 136.212,157.730 136.859,158.500 137.646 C 159.270 138.433,159.720 138.959,159.500 138.815 C 159.280 138.672,159.505 138.940,160.000 139.411 C 160.495 139.882,160.765 140.201,160.600 140.120 C 160.435 140.039,160.615 140.261,161.000 140.613 C 161.385 140.965,161.565 141.189,161.400 141.111 C 161.235 141.033,161.312 141.156,161.572 141.385 C 161.832 141.613,161.967 141.803,161.872 141.807 C 161.777 141.810,161.899 141.979,162.141 142.182 C 162.384 142.385,162.529 142.604,162.463 142.670 C 162.397 142.737,162.490 142.847,162.670 142.916 C 162.850 142.985,162.948 143.123,162.886 143.222 C 162.825 143.322,162.915 143.457,163.086 143.522 C 163.258 143.588,163.354 143.712,163.302 143.797 C 163.249 143.883,163.384 144.180,163.603 144.458 C 163.821 144.736,164.000 145.057,164.000 145.172 C 164.000 145.286,164.143 145.460,164.318 145.558 C 164.493 145.656,164.629 145.795,164.620 145.867 C 164.598 146.039,166.014 149.070,166.176 149.200 C 166.244 149.255,166.310 149.390,166.322 149.500 C 166.368 149.929,166.654 150.600,166.790 150.600 C 166.869 150.600,166.933 150.732,166.933 150.894 C 166.933 151.364,167.880 154.085,168.100 154.247 C 168.210 154.328,168.227 154.395,168.138 154.397 C 168.049 154.399,168.040 154.503,168.119 154.630 C 168.197 154.756,168.290 155.183,168.325 155.578 C 168.361 155.973,168.482 156.327,168.596 156.365 C 168.710 156.403,168.761 156.501,168.711 156.582 C 168.661 156.663,168.742 157.309,168.890 158.018 C 169.038 158.726,169.221 159.845,169.297 160.503 C 169.373 161.161,169.477 161.925,169.529 162.200 C 169.790 163.579,169.631 172.056,169.335 172.548 C 169.215 172.746,168.936 174.545,168.916 175.250 C 168.907 175.553,168.834 175.800,168.752 175.800 C 168.671 175.800,168.614 176.003,168.625 176.250 C 168.637 176.498,168.505 177.143,168.332 177.684 C 168.160 178.225,168.060 178.735,168.111 178.817 C 168.161 178.899,168.110 178.997,167.997 179.034 C 167.884 179.072,167.771 179.395,167.746 179.751 C 167.721 180.108,167.623 180.399,167.529 180.400 C 167.434 180.400,167.409 180.535,167.472 180.700 C 167.536 180.865,167.491 181.000,167.372 181.000 C 167.254 181.000,167.207 181.129,167.267 181.287 C 167.328 181.445,167.289 181.604,167.180 181.640 C 167.071 181.676,166.967 181.907,166.949 182.153 C 166.930 182.399,166.837 182.600,166.741 182.600 C 166.645 182.600,166.604 182.712,166.649 182.848 C 166.695 182.985,166.607 183.221,166.455 183.374 C 166.302 183.527,166.224 183.775,166.282 183.926 C 166.340 184.077,166.323 184.201,166.244 184.202 C 166.057 184.205,165.333 185.716,165.333 186.102 C 165.333 186.266,165.253 186.400,165.155 186.400 C 165.057 186.400,165.032 186.490,165.100 186.600 C 165.168 186.710,165.123 186.800,165.000 186.800 C 164.877 186.800,164.832 186.890,164.900 187.000 C 164.968 187.110,164.937 187.200,164.832 187.200 C 164.588 187.200,163.787 188.720,163.947 188.880 C 164.013 188.946,163.962 189.000,163.833 189.000 C 163.705 189.000,163.600 189.135,163.600 189.300 C 163.600 189.465,163.505 189.600,163.388 189.600 C 163.272 189.600,163.232 189.690,163.300 189.800 C 163.368 189.910,163.337 190.000,163.232 190.000 C 163.062 190.000,162.403 190.955,162.197 191.500 C 162.155 191.610,161.936 191.864,161.710 192.065 C 161.485 192.266,161.435 192.369,161.600 192.293 C 161.765 192.218,161.630 192.397,161.300 192.693 C 160.970 192.988,160.835 193.166,161.000 193.088 C 161.165 193.011,160.985 193.235,160.600 193.587 C 160.215 193.939,160.035 194.160,160.200 194.077 C 160.365 193.995,160.050 194.359,159.500 194.887 C 158.950 195.415,158.680 195.729,158.900 195.585 C 159.120 195.441,158.627 196.016,157.805 196.862 C 156.325 198.384,155.919 198.728,156.399 198.050 C 156.535 197.858,156.215 198.150,155.687 198.700 C 155.159 199.250,154.807 199.565,154.905 199.400 C 155.002 199.235,154.591 199.505,153.991 200.000 C 153.391 200.495,152.870 200.968,152.833 201.051 C 152.796 201.134,152.695 201.159,152.608 201.105 C 152.521 201.051,152.209 201.231,151.915 201.504 C 151.620 201.777,151.294 202.000,151.190 202.000 C 151.085 202.000,151.000 202.090,151.000 202.200 C 151.000 202.310,150.933 202.385,150.850 202.368 C 150.542 202.301,149.600 202.799,149.600 203.028 C 149.600 203.159,149.544 203.211,149.475 203.142 C 149.328 202.994,147.766 203.754,147.553 204.077 C 147.472 204.200,147.405 204.237,147.403 204.160 C 147.399 203.956,146.200 204.407,146.200 204.613 C 146.200 204.709,146.077 204.740,145.926 204.682 C 145.775 204.624,145.527 204.702,145.374 204.855 C 145.221 205.007,144.985 205.095,144.848 205.049 C 144.712 205.004,144.600 205.061,144.600 205.177 C 144.600 205.293,144.465 205.336,144.300 205.272 C 144.135 205.209,144.000 205.254,144.000 205.372 C 144.000 205.491,143.865 205.536,143.700 205.472 C 143.535 205.409,143.400 205.448,143.400 205.560 C 143.400 205.671,143.220 205.715,143.000 205.658 C 142.780 205.600,142.600 205.631,142.600 205.727 C 142.599 205.822,142.320 205.920,141.978 205.944 C 141.636 205.968,141.245 206.079,141.110 206.192 C 140.974 206.304,140.808 206.341,140.740 206.274 C 140.673 206.206,140.456 206.219,140.259 206.303 C 139.845 206.479,139.962 206.461,137.139 206.790 C 135.726 206.954,134.065 206.993,132.339 206.902 C 129.079 206.731,128.905 206.712,127.830 206.414 C 127.351 206.282,126.912 206.221,126.854 206.280 C 126.795 206.338,126.584 206.298,126.384 206.192 C 126.185 206.085,125.791 205.978,125.511 205.955 C 125.230 205.932,125.000 205.832,125.000 205.733 C 125.000 205.634,124.820 205.600,124.600 205.658 C 124.380 205.715,124.200 205.671,124.200 205.560 C 124.200 205.448,124.065 205.409,123.900 205.472 C 123.735 205.536,123.600 205.491,123.600 205.372 C 123.600 205.254,123.465 205.209,123.300 205.272 C 123.135 205.336,123.000 205.293,123.000 205.177 C 123.000 205.061,122.888 205.004,122.752 205.049 C 122.615 205.095,122.379 205.007,122.226 204.855 C 122.073 204.702,121.825 204.624,121.674 204.682 C 121.523 204.740,121.400 204.709,121.400 204.613 C 121.400 204.407,120.201 203.956,120.197 204.160 C 120.195 204.237,120.128 204.199,120.047 204.076 C 119.835 203.753,117.872 202.795,117.724 202.942 C 117.656 203.011,117.600 202.971,117.600 202.853 C 117.600 202.616,116.239 201.745,115.859 201.738 C 115.726 201.735,115.664 201.658,115.721 201.567 C 115.777 201.475,115.728 201.400,115.612 201.400 C 115.235 201.400,115.106 201.328,114.735 200.910 C 114.534 200.685,114.428 200.635,114.500 200.800 C 114.585 200.996,114.530 200.979,114.343 200.750 C 114.185 200.558,113.994 200.400,113.918 200.400 C 113.843 200.400,113.553 200.153,113.274 199.850 C 112.996 199.548,112.834 199.435,112.914 199.600 C 112.995 199.765,112.722 199.540,112.308 199.100 C 111.894 198.660,111.672 198.480,111.815 198.700 C 111.959 198.920,111.469 198.450,110.728 197.657 C 109.986 196.863,108.912 195.794,108.340 195.281 C 107.768 194.769,107.435 194.413,107.600 194.491 C 107.765 194.569,107.630 194.385,107.300 194.083 C 106.970 193.780,106.700 193.453,106.700 193.355 C 106.700 193.257,106.475 192.994,106.200 192.771 C 105.925 192.548,105.835 192.434,106.000 192.517 C 106.338 192.688,105.774 191.943,105.104 191.333 C 104.882 191.131,104.819 191.028,104.965 191.104 C 105.182 191.217,105.184 191.169,104.975 190.834 C 104.835 190.609,104.634 190.479,104.529 190.544 C 104.424 190.609,104.396 190.568,104.466 190.454 C 104.537 190.340,104.416 190.020,104.197 189.742 C 103.979 189.464,103.800 189.133,103.800 189.007 C 103.800 188.879,103.689 188.841,103.550 188.920 C 103.413 188.999,103.361 188.996,103.436 188.912 C 103.605 188.724,102.832 187.200,102.568 187.200 C 102.463 187.200,102.432 187.110,102.500 187.000 C 102.568 186.890,102.523 186.800,102.400 186.800 C 102.277 186.800,102.232 186.710,102.300 186.600 C 102.368 186.490,102.323 186.400,102.200 186.400 C 102.077 186.400,102.032 186.310,102.100 186.200 C 102.168 186.090,102.123 186.000,102.000 186.000 C 101.877 186.000,101.832 185.910,101.900 185.800 C 101.968 185.690,101.923 185.600,101.800 185.600 C 101.677 185.600,101.628 185.516,101.692 185.414 C 101.826 185.197,101.201 183.800,100.969 183.800 C 100.883 183.800,100.864 183.665,100.928 183.500 C 100.991 183.335,100.938 183.200,100.810 183.200 C 100.681 183.200,100.632 183.110,100.700 183.000 C 100.768 182.890,100.748 182.800,100.655 182.800 C 100.563 182.800,100.467 182.553,100.442 182.250 C 100.417 181.947,100.312 181.672,100.210 181.637 C 100.107 181.602,100.072 181.445,100.133 181.287 C 100.193 181.129,100.146 181.000,100.028 181.000 C 99.909 181.000,99.864 180.865,99.928 180.700 C 99.991 180.535,99.938 180.400,99.810 180.400 C 99.681 180.400,99.631 180.312,99.697 180.204 C 99.764 180.096,99.705 179.804,99.567 179.554 C 99.429 179.304,99.337 178.998,99.362 178.872 C 99.387 178.747,99.301 178.387,99.171 178.072 C 99.042 177.758,98.954 177.420,98.977 177.321 C 99.000 177.223,98.918 176.863,98.795 176.521 C 98.672 176.180,98.530 175.585,98.480 175.200 C 98.429 174.815,98.298 173.960,98.187 173.300 C 97.818 171.105,97.653 165.428,97.899 163.400 C 97.945 163.015,98.030 162.160,98.086 161.500 C 98.143 160.840,98.324 159.684,98.488 158.931 C 98.653 158.178,98.776 157.503,98.762 157.431 C 98.748 157.359,98.793 157.165,98.862 157.000 C 98.931 156.835,99.021 156.475,99.063 156.200 C 99.104 155.925,99.247 155.433,99.380 155.107 C 99.514 154.781,99.640 154.263,99.661 153.957 C 99.683 153.651,99.777 153.401,99.871 153.400 C 99.966 153.400,99.991 153.265,99.928 153.100 C 99.864 152.935,99.909 152.800,100.028 152.800 C 100.146 152.800,100.193 152.671,100.133 152.513 C 100.072 152.355,100.111 152.196,100.220 152.160 C 100.329 152.124,100.433 151.893,100.451 151.647 C 100.470 151.401,100.566 151.200,100.664 151.200 C 100.762 151.200,100.791 151.065,100.728 150.900 C 100.664 150.735,100.705 150.600,100.818 150.600 C 100.931 150.600,100.968 150.510,100.900 150.400 C 100.832 150.290,100.862 150.200,100.967 150.200 C 101.149 150.200,101.427 149.438,101.341 149.171 C 101.319 149.100,101.448 148.875,101.628 148.671 C 102.031 148.215,103.428 145.400,103.251 145.400 C 103.181 145.400,103.271 145.287,103.451 145.150 C 103.631 145.013,103.805 144.768,103.839 144.607 C 103.873 144.446,104.098 144.093,104.339 143.821 C 104.581 143.549,104.739 143.263,104.690 143.185 C 104.642 143.106,104.742 142.988,104.914 142.922 C 105.085 142.857,105.169 142.712,105.101 142.601 C 105.032 142.491,105.072 142.400,105.188 142.400 C 105.305 142.400,105.400 142.320,105.400 142.221 C 105.400 142.123,105.670 141.753,106.000 141.400 C 106.330 141.047,106.600 140.664,106.600 140.550 C 106.600 140.436,106.938 140.030,107.350 139.649 C 107.763 139.267,107.920 139.070,107.700 139.210 C 107.480 139.351,107.857 138.953,108.538 138.327 C 109.219 137.701,110.241 136.674,110.809 136.044 C 111.377 135.415,111.780 135.035,111.704 135.200 C 111.629 135.365,111.816 135.230,112.120 134.900 C 112.423 134.570,112.733 134.318,112.807 134.340 C 112.882 134.363,113.258 134.092,113.643 133.739 C 114.028 133.387,114.580 132.971,114.868 132.817 C 115.157 132.662,115.556 132.393,115.754 132.218 C 115.953 132.043,116.247 131.873,116.408 131.839 C 116.569 131.805,116.804 131.642,116.932 131.476 C 117.059 131.309,117.222 131.189,117.293 131.208 C 117.365 131.228,117.980 130.943,118.662 130.577 C 119.343 130.210,119.945 129.901,120.000 129.889 C 120.693 129.740,121.200 129.520,121.200 129.367 C 121.200 129.262,121.290 129.232,121.400 129.300 C 121.510 129.368,121.600 129.348,121.600 129.255 C 121.600 129.163,121.847 129.067,122.150 129.042 C 122.453 129.017,122.728 128.912,122.763 128.810 C 122.798 128.707,122.955 128.672,123.113 128.733 C 123.271 128.793,123.400 128.753,123.400 128.644 C 123.400 128.534,123.513 128.453,123.650 128.463 C 124.068 128.495,125.400 128.164,125.401 128.028 C 125.401 127.957,125.729 127.883,126.129 127.862 C 126.528 127.842,126.944 127.736,127.052 127.628 C 127.160 127.520,127.373 127.479,127.524 127.537 C 127.676 127.595,127.958 127.578,128.150 127.500 C 128.343 127.421,128.950 127.319,129.500 127.272 C 130.050 127.225,130.995 127.118,131.600 127.034 C 132.205 126.951,132.835 126.906,133.000 126.935 C 133.165 126.963,134.290 127.028,135.500 127.078 M269.300 127.100 C 271.732 127.297,272.080 127.343,272.955 127.583 C 273.425 127.712,273.891 127.767,273.991 127.706 C 274.091 127.644,274.233 127.691,274.306 127.810 C 274.380 127.930,274.563 127.980,274.714 127.922 C 274.864 127.865,275.044 127.910,275.114 128.022 C 275.183 128.135,275.361 128.181,275.507 128.125 C 275.654 128.069,275.803 128.109,275.838 128.215 C 275.874 128.322,276.195 128.429,276.551 128.454 C 276.908 128.479,277.199 128.577,277.200 128.671 C 277.200 128.766,277.335 128.791,277.500 128.728 C 277.665 128.664,277.800 128.707,277.800 128.823 C 277.800 128.939,277.912 128.996,278.048 128.951 C 278.185 128.905,278.421 128.993,278.574 129.145 C 278.727 129.298,278.975 129.376,279.126 129.318 C 279.277 129.260,279.400 129.291,279.400 129.387 C 279.400 129.593,280.599 130.044,280.603 129.840 C 280.605 129.763,280.672 129.801,280.753 129.924 C 280.949 130.222,282.998 131.249,283.006 131.053 C 283.009 130.969,283.104 131.058,283.216 131.250 C 283.328 131.442,283.514 131.600,283.628 131.600 C 283.743 131.600,284.064 131.779,284.342 131.997 C 284.620 132.216,284.917 132.351,285.003 132.298 C 285.088 132.246,285.215 132.350,285.284 132.530 C 285.353 132.710,285.455 132.811,285.512 132.755 C 285.568 132.699,285.867 132.888,286.175 133.176 C 286.484 133.464,286.998 133.833,287.318 133.996 C 287.638 134.158,288.154 134.563,288.464 134.896 C 288.774 135.228,288.965 135.365,288.888 135.200 C 288.812 135.035,289.169 135.368,289.681 135.940 C 290.194 136.512,291.263 137.586,292.057 138.328 C 292.850 139.069,293.320 139.559,293.100 139.415 C 292.880 139.272,293.060 139.494,293.500 139.908 C 293.940 140.322,294.165 140.595,294.000 140.514 C 293.835 140.434,293.947 140.596,294.250 140.874 C 294.553 141.153,294.800 141.443,294.800 141.518 C 294.800 141.594,294.957 141.785,295.150 141.943 C 295.379 142.130,295.396 142.185,295.200 142.100 C 295.035 142.028,295.099 142.145,295.341 142.360 C 295.584 142.575,295.729 142.804,295.663 142.870 C 295.597 142.937,295.690 143.047,295.870 143.116 C 296.050 143.185,296.148 143.323,296.086 143.422 C 296.025 143.522,296.115 143.657,296.286 143.722 C 296.458 143.788,296.550 143.919,296.492 144.014 C 296.433 144.108,296.569 144.369,296.793 144.593 C 297.017 144.817,297.194 145.023,297.186 145.050 C 297.127 145.259,297.635 146.200,297.807 146.200 C 297.926 146.200,297.968 146.290,297.900 146.400 C 297.832 146.510,297.872 146.600,297.988 146.600 C 298.105 146.600,298.179 146.667,298.152 146.750 C 298.075 146.995,298.633 148.200,298.824 148.200 C 298.921 148.200,298.978 148.272,298.950 148.360 C 298.874 148.605,299.453 150.000,299.631 150.000 C 299.717 150.000,299.736 150.135,299.672 150.300 C 299.609 150.465,299.657 150.600,299.779 150.600 C 299.900 150.600,299.980 150.667,299.955 150.750 C 299.886 150.982,300.436 152.800,300.576 152.800 C 300.644 152.800,300.714 153.045,300.732 153.344 C 300.749 153.643,300.862 153.921,300.983 153.961 C 301.104 154.001,301.149 154.120,301.084 154.226 C 301.019 154.331,301.074 154.549,301.207 154.709 C 301.340 154.869,301.401 155.000,301.343 155.000 C 301.284 155.000,301.367 155.472,301.528 156.050 C 301.875 157.301,301.967 157.784,302.104 159.075 C 302.161 159.612,302.262 160.139,302.329 160.247 C 302.837 161.069,302.710 173.700,302.194 173.700 C 302.172 173.700,302.120 173.970,302.078 174.300 C 301.936 175.403,301.875 175.696,301.629 176.427 C 301.494 176.826,301.402 177.231,301.424 177.327 C 301.446 177.422,301.405 177.635,301.333 177.800 C 301.020 178.524,300.628 180.083,300.721 180.234 C 300.777 180.325,300.719 180.400,300.590 180.400 C 300.462 180.400,300.409 180.535,300.472 180.700 C 300.536 180.865,300.491 181.000,300.372 181.000 C 300.254 181.000,300.207 181.129,300.267 181.287 C 300.328 181.445,300.293 181.602,300.190 181.637 C 300.088 181.672,299.983 181.947,299.958 182.250 C 299.933 182.553,299.837 182.800,299.745 182.800 C 299.652 182.800,299.632 182.890,299.700 183.000 C 299.768 183.110,299.719 183.200,299.590 183.200 C 299.462 183.200,299.409 183.335,299.472 183.500 C 299.536 183.665,299.523 183.801,299.444 183.802 C 299.232 183.804,298.793 184.827,298.917 185.028 C 298.976 185.123,298.923 185.200,298.800 185.200 C 298.677 185.200,298.632 185.290,298.700 185.400 C 298.768 185.510,298.742 185.600,298.642 185.600 C 298.443 185.600,297.670 187.199,297.750 187.446 C 297.778 187.531,297.705 187.600,297.588 187.600 C 297.472 187.600,297.432 187.690,297.500 187.800 C 297.568 187.910,297.526 188.000,297.407 188.000 C 297.217 188.000,296.720 188.970,296.803 189.178 C 296.820 189.220,296.756 189.310,296.660 189.378 C 296.239 189.674,295.617 190.666,295.734 190.854 C 295.804 190.968,295.776 191.009,295.671 190.944 C 295.566 190.879,295.365 191.009,295.225 191.234 C 295.016 191.569,295.018 191.618,295.235 191.506 C 295.389 191.427,295.374 191.481,295.199 191.635 C 294.626 192.140,293.101 194.081,293.400 193.926 C 293.565 193.840,293.453 193.965,293.150 194.202 C 292.848 194.439,292.600 194.712,292.600 194.809 C 292.600 194.906,291.723 195.860,290.650 196.929 C 289.578 197.999,288.823 198.700,288.973 198.487 C 289.123 198.274,288.860 198.505,288.389 199.000 C 287.918 199.495,287.600 199.765,287.683 199.600 C 287.765 199.435,287.622 199.525,287.366 199.800 C 287.109 200.075,286.649 200.412,286.344 200.548 C 286.039 200.685,285.737 200.932,285.673 201.097 C 285.610 201.262,285.477 201.348,285.378 201.286 C 285.278 201.225,285.143 201.315,285.078 201.486 C 285.012 201.658,284.881 201.750,284.786 201.692 C 284.692 201.633,284.431 201.769,284.207 201.993 C 283.983 202.217,283.721 202.400,283.624 202.400 C 283.528 202.400,282.925 202.715,282.286 203.100 C 281.647 203.485,281.012 203.800,280.876 203.800 C 280.740 203.800,280.510 203.919,280.364 204.064 C 280.219 204.210,280.031 204.339,279.946 204.352 C 279.603 204.405,275.093 205.907,275.000 206.000 C 274.945 206.055,274.540 206.131,274.100 206.169 C 273.660 206.208,273.270 206.321,273.233 206.421 C 273.196 206.521,273.093 206.557,273.004 206.502 C 272.915 206.447,272.360 206.498,271.771 206.614 C 270.000 206.964,265.654 207.061,263.594 206.798 C 262.552 206.665,261.430 206.527,261.100 206.491 C 260.770 206.456,260.197 206.334,259.827 206.221 C 259.458 206.108,259.098 206.026,259.027 206.039 C 258.957 206.053,258.765 206.009,258.600 205.943 C 258.435 205.877,257.355 205.509,256.200 205.125 C 255.045 204.742,253.836 204.292,253.514 204.124 C 253.192 203.957,252.855 203.866,252.764 203.922 C 252.674 203.978,252.600 203.923,252.600 203.800 C 252.600 203.677,252.510 203.632,252.400 203.700 C 252.290 203.768,252.200 203.723,252.200 203.600 C 252.200 203.477,252.110 203.432,252.000 203.500 C 251.890 203.568,251.800 203.523,251.800 203.400 C 251.800 203.277,251.710 203.232,251.600 203.300 C 251.490 203.368,251.400 203.330,251.400 203.216 C 251.400 202.937,249.891 202.179,249.693 202.359 C 249.606 202.436,249.594 202.398,249.665 202.273 C 249.742 202.140,249.532 201.938,249.156 201.782 C 248.805 201.636,248.356 201.356,248.159 201.159 C 247.961 200.961,247.665 200.800,247.500 200.800 C 247.335 200.800,247.200 200.725,247.200 200.633 C 247.200 200.542,246.824 200.165,246.365 199.796 C 245.906 199.427,245.606 199.254,245.698 199.412 C 245.791 199.571,245.482 199.295,245.011 198.800 C 244.540 198.305,244.266 198.080,244.402 198.300 C 244.539 198.520,244.211 198.222,243.675 197.638 C 243.139 197.054,242.250 196.166,241.700 195.665 C 241.150 195.164,240.880 194.864,241.100 195.000 C 241.320 195.135,241.095 194.860,240.600 194.389 C 240.105 193.918,239.829 193.609,239.988 193.702 C 240.146 193.794,239.973 193.494,239.604 193.035 C 239.235 192.576,238.858 192.200,238.767 192.200 C 238.675 192.200,238.600 192.097,238.600 191.972 C 238.600 191.847,238.443 191.615,238.250 191.457 C 238.058 191.299,238.019 191.231,238.165 191.306 C 238.382 191.418,238.384 191.369,238.175 191.034 C 238.035 190.809,237.834 190.679,237.729 190.744 C 237.624 190.809,237.596 190.768,237.666 190.654 C 237.783 190.466,237.161 189.474,236.740 189.178 C 236.644 189.110,236.580 189.020,236.597 188.978 C 236.677 188.777,236.186 187.800,236.005 187.800 C 235.892 187.800,235.822 187.728,235.850 187.640 C 235.928 187.390,234.954 185.400,234.754 185.400 C 234.656 185.400,234.632 185.310,234.700 185.200 C 234.768 185.090,234.723 185.000,234.600 185.000 C 234.477 185.000,234.424 184.923,234.483 184.828 C 234.607 184.627,234.168 183.604,233.956 183.602 C 233.877 183.601,233.864 183.465,233.928 183.300 C 233.991 183.135,233.943 183.000,233.821 183.000 C 233.700 183.000,233.620 182.933,233.645 182.850 C 233.732 182.560,233.146 180.800,232.962 180.800 C 232.860 180.800,232.831 180.712,232.897 180.604 C 232.964 180.496,232.905 180.204,232.767 179.954 C 232.628 179.704,232.537 179.423,232.565 179.329 C 232.592 179.235,232.510 179.032,232.383 178.879 C 232.255 178.726,232.195 178.600,232.250 178.600 C 232.304 178.600,232.178 177.903,231.970 177.050 C 231.762 176.197,231.550 175.140,231.500 174.700 C 231.450 174.260,231.362 173.675,231.306 173.400 C 230.941 171.630,230.770 168.172,230.907 165.300 C 231.095 161.336,231.106 161.196,231.272 160.682 C 231.346 160.452,231.445 159.867,231.491 159.382 C 231.537 158.897,231.717 157.975,231.889 157.334 C 232.062 156.692,232.152 156.085,232.090 155.984 C 232.027 155.883,232.062 155.800,232.166 155.800 C 232.349 155.800,232.702 154.559,232.663 154.050 C 232.653 153.913,232.714 153.800,232.800 153.800 C 232.950 153.800,233.303 152.457,233.234 152.150 C 233.215 152.067,233.290 152.000,233.400 152.000 C 233.510 152.000,233.600 151.868,233.600 151.706 C 233.600 151.544,233.820 150.914,234.089 150.306 C 234.358 149.698,234.524 149.200,234.458 149.200 C 234.392 149.200,234.477 149.042,234.648 148.850 C 235.093 148.347,236.585 145.252,236.448 145.115 C 236.385 145.052,236.438 145.000,236.567 145.000 C 236.695 145.000,236.800 144.897,236.800 144.772 C 236.800 144.647,236.930 144.444,237.089 144.322 C 237.248 144.200,237.405 143.971,237.439 143.814 C 237.473 143.657,237.667 143.327,237.871 143.082 C 238.074 142.836,238.209 142.593,238.171 142.540 C 238.132 142.488,238.325 142.258,238.600 142.029 C 238.875 141.800,239.043 141.610,238.973 141.607 C 238.903 141.603,239.196 141.218,239.623 140.750 C 240.050 140.283,240.400 139.834,240.400 139.753 C 240.400 139.672,240.738 139.277,241.150 138.876 C 241.563 138.474,241.720 138.265,241.500 138.411 C 241.280 138.557,241.773 137.984,242.595 137.138 C 244.071 135.620,244.605 135.174,243.899 136.050 C 243.700 136.297,243.934 136.096,244.418 135.601 C 244.903 135.107,245.366 134.724,245.446 134.750 C 245.527 134.776,245.739 134.573,245.919 134.299 C 246.099 134.024,246.351 133.800,246.478 133.800 C 246.606 133.800,247.183 133.446,247.759 133.012 C 248.336 132.579,248.987 132.168,249.207 132.098 C 249.439 132.024,249.549 131.873,249.471 131.736 C 249.397 131.606,249.406 131.564,249.493 131.641 C 249.691 131.821,251.200 131.063,251.200 130.784 C 251.200 130.670,251.290 130.632,251.400 130.700 C 251.510 130.768,251.600 130.723,251.600 130.600 C 251.600 130.477,251.690 130.432,251.800 130.500 C 251.910 130.568,252.000 130.523,252.000 130.400 C 252.000 130.277,252.090 130.232,252.200 130.300 C 252.310 130.368,252.400 130.323,252.400 130.200 C 252.400 130.077,252.490 130.032,252.600 130.100 C 252.710 130.168,252.800 130.123,252.800 130.000 C 252.800 129.877,252.877 129.824,252.972 129.883 C 253.173 130.007,254.196 129.568,254.198 129.356 C 254.199 129.277,254.335 129.264,254.500 129.328 C 254.665 129.391,254.800 129.362,254.800 129.264 C 254.800 129.166,255.001 129.070,255.247 129.051 C 255.493 129.033,255.724 128.929,255.760 128.820 C 255.796 128.711,255.955 128.672,256.113 128.733 C 256.271 128.793,256.400 128.766,256.400 128.671 C 256.401 128.577,256.651 128.483,256.957 128.461 C 257.263 128.440,257.781 128.313,258.107 128.179 C 258.433 128.045,258.757 127.947,258.827 127.960 C 258.898 127.974,259.258 127.893,259.627 127.780 C 260.697 127.455,261.904 127.281,264.277 127.112 C 265.034 127.057,265.679 126.988,265.710 126.957 C 265.781 126.885,267.494 126.953,269.300 127.100 " stroke="none" fill="#5c64f4" fill-rule="evenodd"></path><path id="path1" d="M199.550 18.145 C 199.908 18.189,200.493 18.189,200.850 18.145 C 201.208 18.100,200.915 18.064,200.200 18.064 C 199.485 18.064,199.192 18.100,199.550 18.145 M189.450 18.338 C 189.643 18.388,189.958 18.388,190.150 18.338 C 190.343 18.288,190.185 18.246,189.800 18.246 C 189.415 18.246,189.258 18.288,189.450 18.338 M210.352 18.341 C 210.601 18.389,210.961 18.387,211.152 18.337 C 211.344 18.287,211.140 18.248,210.700 18.250 C 210.260 18.253,210.104 18.294,210.352 18.341 M242.600 137.100 C 241.781 137.925,241.155 138.600,241.210 138.600 C 241.265 138.600,241.981 137.925,242.800 137.100 C 243.619 136.275,244.245 135.600,244.190 135.600 C 244.135 135.600,243.419 136.275,242.600 137.100 M158.900 138.200 C 159.330 138.640,159.726 139.000,159.781 139.000 C 159.836 139.000,159.530 138.640,159.100 138.200 C 158.670 137.760,158.274 137.400,158.219 137.400 C 158.164 137.400,158.470 137.760,158.900 138.200 M169.672 166.400 C 169.672 167.445,169.706 167.873,169.747 167.350 C 169.788 166.828,169.788 165.972,169.747 165.450 C 169.706 164.928,169.672 165.355,169.672 166.400 M302.646 168.000 C 302.646 168.385,302.688 168.543,302.738 168.350 C 302.788 168.158,302.788 167.843,302.738 167.650 C 302.688 167.458,302.646 167.615,302.646 168.000 M157.600 196.900 C 156.781 197.725,156.155 198.400,156.210 198.400 C 156.265 198.400,156.981 197.725,157.800 196.900 C 158.619 196.075,159.245 195.400,159.190 195.400 C 159.135 195.400,158.419 196.075,157.600 196.900 M0.054 207.600 C 0.054 208.095,0.093 208.298,0.141 208.050 C 0.189 207.803,0.189 207.398,0.141 207.150 C 0.093 206.903,0.054 207.105,0.054 207.600 M0.054 227.800 C 0.054 228.295,0.093 228.498,0.141 228.250 C 0.189 228.003,0.189 227.597,0.141 227.350 C 0.093 227.103,0.054 227.305,0.054 227.800 M195.150 268.745 C 195.508 268.789,196.093 268.789,196.450 268.745 C 196.808 268.700,196.515 268.664,195.800 268.664 C 195.085 268.664,194.793 268.700,195.150 268.745 M203.946 268.744 C 204.301 268.789,204.931 268.789,205.346 268.746 C 205.760 268.703,205.470 268.667,204.700 268.666 C 203.930 268.665,203.590 268.700,203.946 268.744 " stroke="none" fill="#5464f4" fill-rule="evenodd"></path><path id="path2" d="M242.600 137.300 C 242.114 137.795,241.762 138.200,241.817 138.200 C 241.872 138.200,242.314 137.795,242.800 137.300 C 243.286 136.805,243.638 136.400,243.583 136.400 C 243.528 136.400,243.086 136.805,242.600 137.300 M157.492 196.850 L 156.500 197.900 157.550 196.908 C 158.128 196.362,158.600 195.889,158.600 195.858 C 158.600 195.708,158.415 195.874,157.492 196.850 " stroke="none" fill="#6064f4" fill-rule="evenodd"></path><path id="path3" d="M242.600 137.300 C 242.114 137.795,241.762 138.200,241.817 138.200 C 241.872 138.200,242.314 137.795,242.800 137.300 C 243.286 136.805,243.638 136.400,243.583 136.400 C 243.528 136.400,243.086 136.805,242.600 137.300 M157.492 196.850 L 156.500 197.900 157.550 196.908 C 158.128 196.362,158.600 195.889,158.600 195.858 C 158.600 195.708,158.415 195.874,157.492 196.850 " stroke="none" fill="#6064f4" fill-rule="evenodd"></path><path id="path4" d="M242.600 137.300 C 242.114 137.795,241.762 138.200,241.817 138.200 C 241.872 138.200,242.314 137.795,242.800 137.300 C 243.286 136.805,243.638 136.400,243.583 136.400 C 243.528 136.400,243.086 136.805,242.600 137.300 M157.492 196.850 L 156.500 197.900 157.550 196.908 C 158.128 196.362,158.600 195.889,158.600 195.858 C 158.600 195.708,158.415 195.874,157.492 196.850 " stroke="none" fill="#6064f4" fill-rule="evenodd"></path></g></svg>