<?xml version="1.0" standalone="no"?><!DOCTYPE svg PUBLIC "-//W3C//DTD SVG 1.1//EN" "http://www.w3.org/Graphics/SVG/1.1/DTD/svg11.dtd"><svg t="1688574618531" class="icon" viewBox="0 0 1024 1024" version="1.1" xmlns="http://www.w3.org/2000/svg" p-id="2984" xmlns:xlink="http://www.w3.org/1999/xlink" width="32" height="32"><path d="M753.62102 709.546798a30.378654 30.378654 0 1 0 60.757308 0 30.378654 30.378654 0 1 0-60.757308 0m-403.199832 180.821258h323.199865c12.799995 0 22.357324-9.599996 23.210657-22.357324v-220.799908c-0.853333-12.031995-11.221329-22.399991-23.210657-21.631991H350.421188a23.03999 23.03999 0 0 0-23.210657 22.39999v219.989242c0 12.842661 10.410662 22.399991 23.210657 22.399991z m556.842434-150.399938a31.103987 31.103987 0 0 0 31.146654-31.103987 31.146654 31.146654 0 1 0-31.146654 31.103987z m-61.567974-0.810666a30.463987 30.463987 0 1 0 0.042666 60.885308 30.463987 30.463987 0 0 0-0.042666-60.885308z m-30.421321-91.178629a30.378654 30.378654 0 1 0 60.757308 0 30.378654 30.378654 0 1 0-60.757308 0M108.799955 708.778798a70.399971 70.399971 0 1 0 140.799941 0 70.399971 70.399971 0 1 0-140.799941 0M908.031622 0.000427H116.821285A116.479951 116.479951 0 0 0 0 116.053712v791.125003C0.810667 971.989355 52.821312 1024 116.821285 1024h790.442337a117.461284 117.461284 0 0 0 117.589284-116.010618V116.779045C1024.04224 52.011072 972.031595 0.000427 908.031622 0.000427z m81.621299 907.988955a81.919966 81.919966 0 0 1-81.578633 81.578632H116.821285a81.919966 81.919966 0 0 1-81.621299-81.578632v-360.789183h954.410269v360.789183z m0-413.610495H35.199986v-377.599842A81.919966 81.919966 0 0 1 116.821285 35.157745h791.210337c44.757315 0 81.578633 36.821318 81.578633 81.6213v377.599842m-246.399898-361.599849H279.210551c-12.799995 0-23.210657 11.221329-23.210657 24.021323V390.400264c0 12.799995 9.642663 24.021323 23.210657 24.021323h463.999806a23.381324 23.381324 0 0 0 23.210657-24.021323V155.989695a23.16799 23.16799 0 0 0-23.210657-23.210657z" p-id="2985"></path></svg>